<svg version="1.1" id="Layer_1" xmlns="http://www.w3.org/2000/svg" xmlns:xlink="http://www.w3.org/1999/xlink" x="0px" y="0px"
	 width="100%" viewBox="0 0 500 500" enable-background="new 0 0 500 500" xml:space="preserve">
<path fill="#000000" opacity="1.000000" stroke="none" 
	d="
M228.000000,501.000000 
	C152.000015,501.000000 76.500038,501.000000 1.000041,501.000000 
	C1.000027,334.333405 1.000027,167.666779 1.000013,1.000130 
	C167.666565,1.000087 334.333130,1.000087 500.999756,1.000043 
	C500.999847,167.666534 500.999847,334.333069 500.999939,500.999817 
	C410.166656,501.000000 319.333344,501.000000 228.000000,501.000000 
M202.687210,189.882446 
	C203.131714,189.813141 203.576218,189.743851 204.767334,189.834457 
	C206.184265,189.568726 207.601212,189.303009 209.788925,189.068970 
	C210.784882,188.790894 211.780838,188.512817 213.803284,187.948135 
	C212.022614,193.975174 210.479233,199.199097 208.860443,204.678207 
	C211.151993,204.678207 213.085632,204.678207 215.834030,204.854782 
	C217.216660,204.794434 218.599289,204.734085 220.768585,204.863419 
	C223.220001,205.226959 224.745636,204.524216 225.571548,201.867371 
	C226.001877,200.483078 227.598587,198.590637 228.813110,198.477249 
	C233.198242,198.067841 237.644791,198.316208 240.815475,198.316208 
	C242.706528,201.112183 243.913940,202.897369 245.654449,204.833801 
	C245.832825,204.785828 246.011200,204.737854 246.962448,204.878357 
	C255.168640,204.878357 263.374817,204.878357 271.864929,204.878357 
	C271.864929,199.659531 271.741577,195.199097 271.916290,190.750381 
	C272.005432,188.481033 272.629608,186.232697 272.997223,183.997360 
	C272.997223,183.997360 273.020905,183.990021 273.107391,184.683121 
	C278.639191,191.269272 284.124420,197.896133 289.781555,204.372803 
	C290.294678,204.960251 291.913666,204.581726 293.874634,204.836456 
	C295.910217,204.775757 297.945831,204.715057 300.847778,204.841980 
	C306.219971,204.191284 311.592163,203.540573 317.817810,202.900986 
	C319.190094,202.703827 320.562408,202.506668 322.775696,202.267136 
	C326.862671,201.748993 330.949646,201.230850 335.800873,200.849823 
	C336.515747,200.622650 337.230652,200.395477 338.683807,200.260559 
	C340.093018,200.073441 341.502258,199.886337 343.679413,199.674515 
	C344.433990,199.555878 345.188538,199.437241 346.441498,199.665375 
	C346.957275,199.426300 347.473053,199.187225 348.787262,198.939423 
	C349.847412,198.875977 350.907562,198.812531 352.759460,198.821075 
	C355.420044,198.212006 358.051697,197.366180 360.746460,197.036407 
	C370.462097,195.847519 380.199005,194.832489 390.611633,193.777603 
	C391.057251,193.700836 391.502838,193.624069 392.596375,193.758163 
	C393.406738,193.518524 394.217102,193.278885 395.688782,193.061264 
	C396.125061,193.009277 396.561310,192.957291 397.847809,193.108780 
	C400.536774,192.648422 403.225769,192.188065 406.601257,191.795959 
	C407.053558,191.733826 407.505890,191.671677 408.821869,191.808029 
	C418.712738,190.485855 428.603607,189.163696 438.784210,187.802795 
	C439.058868,189.513000 439.355438,191.359573 439.614838,192.974808 
	C436.246674,192.727936 433.165375,192.502075 429.253448,192.338959 
	C408.726410,195.738449 388.199371,199.137939 367.672302,202.537430 
	C367.600952,203.019562 367.529572,203.501694 367.458191,203.983826 
	C368.317261,204.671936 369.195984,205.977295 370.032288,205.950653 
	C376.797058,205.735153 383.555878,205.299835 390.310455,204.841919 
	C391.159027,204.784393 392.442810,204.430145 392.727783,203.832977 
	C395.081299,198.901093 398.645081,200.712891 402.600281,202.451996 
	C405.748688,203.340881 408.897095,204.229767 412.926025,205.366928 
	C416.268127,205.289948 419.610260,205.212967 423.327576,205.394470 
	C423.867523,205.213623 424.407501,205.032776 425.664062,204.856903 
	C426.101349,204.704361 426.538635,204.551819 427.637329,204.370575 
	C429.526672,203.341522 431.416046,202.312469 433.197662,201.207184 
	C433.197662,201.207184 433.235291,201.333694 433.842377,201.170380 
	C434.524597,200.431488 435.206818,199.692596 435.965240,198.957581 
	C435.965240,198.957581 435.965393,198.881287 436.608429,198.622787 
	C437.699860,196.875626 438.791290,195.128479 439.882721,193.381317 
	C442.677704,192.620636 445.980835,191.302109 446.720367,189.116241 
	C448.081909,185.091965 444.671417,183.952805 440.904907,184.171082 
	C440.904907,175.421951 440.904907,167.147888 440.904907,158.514313 
	C435.520569,158.514313 430.475098,158.514313 425.115875,158.514313 
	C425.115875,167.860489 425.115875,176.955078 425.115875,186.263840 
	C419.973663,186.891159 415.110535,187.484436 409.800903,188.132187 
	C409.800903,178.087677 409.800903,168.487823 409.800903,158.847809 
	C404.368683,158.847809 399.344025,158.847809 394.152222,158.847809 
	C394.152222,168.123413 394.206451,176.948242 394.097504,185.771057 
	C394.079895,187.194885 393.336304,188.609741 392.927216,189.193375 
	C392.868500,187.806519 392.809814,186.419647 392.940002,184.352921 
	C392.877899,183.890900 392.815765,183.428864 392.898773,182.187134 
	C392.853607,181.133682 392.808441,180.080215 392.930298,178.499695 
	C392.874786,178.323975 392.819244,178.148239 392.903473,177.329498 
	C392.856293,176.895905 392.809143,176.462296 392.950073,175.177887 
	C392.886200,173.441833 392.822357,171.705795 392.900146,169.154510 
	C392.852966,167.779572 392.805786,166.404633 392.948883,164.171906 
	C392.948883,162.400879 392.948883,160.629837 392.948883,158.174088 
	C388.070709,158.174088 383.629547,158.061691 379.207550,158.302002 
	C378.584198,158.335861 378.054474,160.092361 377.303467,161.766937 
	C377.368103,162.495667 377.432770,163.224411 377.252319,164.750320 
	C377.333099,165.849655 377.413879,166.949005 377.310272,168.675949 
	C377.371704,169.103195 377.433136,169.530441 377.251282,170.780746 
	C377.228424,172.211243 377.205566,173.641739 377.042358,175.076889 
	C377.042358,175.076889 377.084229,175.210938 376.141113,175.302689 
	C371.529114,175.302689 366.917114,175.302689 361.720093,175.302689 
	C361.720093,169.554657 361.720093,164.188126 361.720093,158.673691 
	C356.211121,158.673691 351.299225,158.673691 345.978821,158.673691 
	C345.978821,161.501801 345.978821,164.053757 345.978821,167.039124 
	C336.853271,157.078918 322.095428,154.563644 311.162994,160.788742 
	C311.162994,160.788742 310.999969,161.066483 310.249329,161.116119 
	C308.520691,162.282684 306.792053,163.449249 304.819244,164.780594 
	C304.508087,162.480179 304.250977,160.579559 304.025177,158.910187 
	C298.956360,158.910187 294.249207,158.910187 288.929291,158.910187 
	C288.929291,165.662521 288.929291,171.965683 288.929291,178.871841 
	C287.118073,177.314957 285.993256,176.348083 284.966583,175.167389 
	C284.966583,175.167389 284.744080,175.090927 284.709229,174.417725 
	C280.794098,169.972076 276.878967,165.526413 272.993103,161.010788 
	C272.993103,161.010788 272.921417,161.035492 272.682251,160.339142 
	C267.740967,159.473190 262.799683,158.607254 257.442078,157.668335 
	C257.442078,164.714035 257.442078,170.331436 257.442078,175.948837 
	C257.442078,181.537384 257.442078,187.125931 257.442078,192.714478 
	C257.077271,192.725189 256.712463,192.735916 256.347656,192.746628 
	C253.946045,187.040649 251.544434,181.334671 249.206604,175.262222 
	C249.206604,175.262222 248.947937,174.994904 248.965607,174.230667 
	C247.372101,170.068054 245.476303,165.989426 244.288422,161.714111 
	C243.458191,158.725998 241.736404,157.823013 239.257309,158.532166 
	C234.412231,159.918121 228.217880,154.975800 224.581100,161.417877 
	C222.854111,164.477005 221.805725,167.919235 220.371185,171.377701 
	C211.604767,158.742691 211.431580,158.602951 204.226227,158.555893 
	C200.491623,158.641937 196.757034,158.727982 192.181488,158.529617 
	C186.774780,158.630417 181.368073,158.731216 175.145401,158.562103 
	C173.441406,158.651566 171.737427,158.741013 169.137451,158.526627 
	C158.758499,158.646362 148.379547,158.766083 137.216293,158.641479 
	C124.796928,158.590942 112.377426,158.506180 99.958466,158.555832 
	C98.980988,158.559738 98.007263,159.499481 96.796410,160.814636 
	C96.875648,162.210052 96.954887,163.605484 96.800217,165.652863 
	C96.878906,166.100891 96.957596,166.548904 96.811035,167.673080 
	C96.799759,168.385452 96.788475,169.097809 96.191017,169.895706 
	C95.803757,169.919464 95.416489,169.943222 94.838539,169.298111 
	C92.258362,163.996765 87.732719,160.357269 82.298904,159.684570 
	C72.526199,158.474716 62.593933,158.553879 52.685646,158.092514 
	C52.685646,174.313110 52.685646,189.382751 52.685646,204.892593 
	C58.932514,204.892593 64.897659,204.654251 70.836784,204.945801 
	C80.959167,205.442688 89.541649,203.011475 94.985756,193.652069 
	C95.066254,193.513702 95.527794,193.596954 96.184723,193.550232 
	C96.184723,197.032593 96.184723,200.491592 96.421692,204.768494 
	C99.954552,204.761185 103.487419,204.753891 107.950081,204.847549 
	C117.626907,204.779266 127.303734,204.710968 137.651505,204.832596 
	C138.107773,204.776749 138.564026,204.720901 139.939499,204.839600 
	C145.952774,204.778534 151.966049,204.717484 158.726257,204.854523 
	C159.490967,204.791885 160.255676,204.729263 161.872406,204.846664 
	C163.901154,204.809296 165.929916,204.771942 168.497208,204.925583 
	C168.676239,204.860535 168.855255,204.795502 169.908981,204.842636 
	C172.258514,204.801163 174.608047,204.759705 177.809998,204.930923 
	C179.558151,204.876114 181.306290,204.821304 183.786163,204.871552 
	C184.517441,204.800690 185.248703,204.729828 186.755676,204.851456 
	C188.829330,204.746017 190.902969,204.640564 193.429016,204.545380 
	C193.456985,203.991562 193.484955,203.437729 193.677597,202.278168 
	C193.656647,201.863647 193.635696,201.449127 193.831085,200.501556 
	C193.758881,200.323898 193.686676,200.146255 193.740814,199.148148 
	C193.667786,197.773331 193.594742,196.398529 193.716858,194.497833 
	C193.650253,194.323151 193.583633,194.148453 193.716721,193.188202 
	C193.772888,192.111084 193.829056,191.033981 193.960938,189.978531 
	C193.960938,189.978531 193.960114,189.899780 194.798477,189.854111 
	C196.190826,189.791443 197.583191,189.728790 199.627411,189.861420 
	C200.077484,189.824738 200.527557,189.788055 201.495834,189.931107 
	C201.669464,189.873871 201.843109,189.816620 202.687210,189.882446 
M65.097679,210.031647 
	C65.097679,210.031647 65.061279,210.145859 64.351608,210.184464 
	C61.361885,212.841736 57.210400,214.957840 55.660252,218.285675 
	C53.447712,223.035553 53.140900,228.673141 51.264801,234.088303 
	C49.729786,234.483612 48.194767,234.878906 46.659752,235.274200 
	C46.602173,235.838577 46.544598,236.402939 46.487019,236.967316 
	C48.021542,237.177139 49.601116,237.735840 51.083820,237.544388 
	C72.846741,234.734009 94.590240,231.773178 116.353279,228.963715 
	C124.272881,227.941330 132.231720,227.222992 140.172653,226.365921 
	C140.280457,225.796783 140.388245,225.227631 140.496033,224.658493 
	C139.366180,224.244339 138.211304,223.423645 137.111145,223.491425 
	C133.661285,223.703949 130.232040,224.251190 126.849045,223.650864 
	C126.849045,218.374985 126.849045,213.099091 126.849045,207.596954 
	C120.037323,207.596954 113.842186,207.596954 107.712090,207.596954 
	C107.449783,211.201996 107.216682,214.405609 107.004776,217.318054 
	C103.581398,214.836914 100.281151,212.445023 96.631561,209.572571 
	C96.076782,209.416855 95.522011,209.261139 94.407715,208.631241 
	C84.495056,205.578796 74.710983,205.096512 65.097679,210.031647 
M280.406128,213.700577 
	C277.572540,214.289413 274.738983,214.878250 271.195892,215.229904 
	C270.464203,215.316086 269.732483,215.402283 268.152130,215.419159 
	C264.476746,215.955124 260.801331,216.491089 256.300964,217.083618 
	C253.455322,216.626205 253.526459,218.514954 253.537857,220.446793 
	C253.577148,227.107361 253.543854,233.768478 253.604279,240.428787 
	C253.645752,245.003174 251.574249,248.060242 247.229599,249.441513 
	C240.445633,251.598312 235.321762,247.783264 234.971878,239.983292 
	C234.683533,233.555161 234.913025,227.103790 234.913025,220.203171 
	C229.665955,220.659027 225.087753,220.960602 220.535095,221.484375 
	C217.216431,221.866196 215.340958,223.350418 215.723007,227.289490 
	C216.148026,231.671555 215.820358,236.126633 215.820358,240.549942 
	C215.250137,240.565323 214.679932,240.580704 214.109711,240.596100 
	C212.648773,235.880417 211.387100,231.086945 209.596085,226.500137 
	C209.107742,225.249496 206.965546,223.768326 205.687927,223.860229 
	C201.167633,224.185455 196.693069,225.146225 192.343506,225.843277 
	C193.673996,231.554688 194.858734,236.640427 196.086121,241.909225 
	C192.457657,241.909225 189.333008,241.909225 185.723907,241.909225 
	C187.254852,236.624420 188.692596,231.661362 190.226501,226.366394 
	C188.162369,226.366394 186.687744,226.356964 185.213287,226.367889 
	C173.190170,226.457077 173.205750,226.463959 169.089142,237.641251 
	C168.020538,240.542694 166.821426,243.396088 165.682266,246.271545 
	C165.250885,246.108292 164.819519,245.945053 164.388153,245.781815 
	C164.388153,240.460938 164.388153,235.140076 164.388153,228.993317 
	C161.867203,229.193604 159.145966,229.294250 156.457062,229.643570 
	C145.327698,231.089462 134.200333,232.555786 123.088486,234.129395 
	C118.223534,234.818375 112.228142,234.312881 108.852745,236.998032 
	C104.720200,240.285431 100.960373,239.590073 96.815773,239.829025 
	C95.042183,239.931290 93.274765,240.140518 91.505859,240.301025 
	C90.621696,245.540283 88.427109,249.318344 83.073799,249.735031 
	C79.959358,249.977417 76.280037,250.793716 75.599136,246.271378 
	C79.166504,245.710251 82.733864,245.149124 87.749771,244.360153 
	C85.765297,243.191330 85.162300,242.536896 84.535645,242.513428 
	C78.325737,242.280624 72.065186,241.616730 65.913109,242.153671 
	C60.397301,242.635086 55.045742,244.762558 49.537746,245.631561 
	C43.223427,246.627808 36.806778,246.961136 30.459253,247.774872 
	C29.359324,247.915878 28.381805,249.011749 27.347748,249.666565 
	C27.564112,250.178040 27.780476,250.689514 27.996838,251.200974 
	C32.057011,250.822922 36.110249,250.308472 40.179123,250.101715 
	C45.133999,249.849930 50.102036,249.857132 55.085831,250.498032 
	C57.022552,253.112549 58.413136,256.634247 60.989944,258.185547 
	C72.537773,265.137482 84.893982,265.526764 97.187073,260.389038 
	C100.766594,258.893005 103.631248,255.686523 106.918861,253.191788 
	C107.265465,256.490173 107.605927,259.730194 108.002914,263.508057 
	C113.078537,263.508057 118.047440,263.508545 123.016335,263.507843 
	C125.638420,263.507477 126.902031,262.447021 126.776360,259.576843 
	C126.587059,255.253372 126.970360,250.900757 126.700745,246.586105 
	C126.459541,242.725876 128.054001,241.574661 131.658691,241.879959 
	C136.068054,242.253418 140.502182,242.334396 145.794006,242.582581 
	C145.794006,249.524109 145.794006,256.537598 145.794006,263.343201 
	C154.795059,263.343201 162.928040,263.393951 171.060120,263.329376 
	C179.686050,263.260895 179.685669,263.213043 181.603439,255.651123 
	C186.965897,255.651123 192.437195,255.545883 197.897446,255.744537 
	C198.925278,255.781906 200.671204,256.919556 200.790817,257.738556 
	C201.639053,263.546844 206.126175,263.209564 210.129364,263.435150 
	C214.140442,263.661163 218.174194,263.484772 222.420105,263.484772 
	C222.216797,261.334442 222.064865,259.727448 221.931473,258.316650 
	C226.619400,259.939453 230.872284,261.937317 235.344864,262.812439 
	C239.836853,263.691315 244.544907,263.544678 249.163208,263.682343 
	C257.923981,263.943481 267.736633,257.606323 271.330322,249.462234 
	C271.433685,248.984741 271.537018,248.507263 271.804901,247.342667 
	C271.860626,246.874985 271.916351,246.407318 272.561462,245.866318 
	C272.756561,245.900055 272.951630,245.933777 273.162354,246.860764 
	C273.210999,249.239426 273.259644,251.618103 273.115814,254.851135 
	C273.753143,257.546753 274.390442,260.242401 275.498535,263.409271 
	C279.607513,263.435974 283.730103,263.266602 287.821228,263.550354 
	C291.197723,263.784515 292.778839,262.884705 292.606964,259.198486 
	C292.397858,254.715302 292.489044,250.202881 292.765411,245.722534 
	C292.837769,244.549377 294.026459,242.506470 294.788757,242.465408 
	C300.106049,242.178970 305.446014,242.314011 311.551636,242.314011 
	C311.551636,249.355957 311.551636,256.225861 311.551636,263.400909 
	C320.271881,263.400909 328.220337,263.265259 336.161621,263.444855 
	C342.252655,263.582611 347.684814,263.149597 347.711273,255.498550 
	C351.212982,255.498550 354.164673,255.498550 357.116364,255.498550 
	C360.250946,255.498550 363.385529,255.498550 367.105560,255.498550 
	C366.395020,263.077637 371.443817,263.226410 376.329559,263.366974 
	C381.153015,263.505829 385.984711,263.481445 390.810425,263.395081 
	C401.918182,263.196289 401.873779,263.163055 401.956543,252.112198 
	C401.986053,248.168716 402.284546,244.227234 402.460266,240.284851 
	C403.016449,240.152832 403.572662,240.020828 404.128845,239.888824 
	C407.607056,243.824707 411.403137,247.526932 414.501801,251.741867 
	C422.636139,262.806549 429.713409,265.727081 440.818054,262.133423 
	C440.818054,243.987869 440.818054,225.892776 440.818054,207.652679 
	C435.162048,207.652679 429.795471,207.652679 423.946655,207.652679 
	C423.946655,216.272079 423.946655,224.461624 423.946655,233.774399 
	C419.170746,228.053299 414.887909,223.445374 411.210510,218.396484 
	C405.539520,210.610565 399.145050,205.355377 388.524658,206.966354 
	C385.115845,207.483414 384.359436,208.177017 384.423462,211.182343 
	C384.547516,217.007965 384.478821,222.837769 384.483490,228.665833 
	C384.488037,234.355804 384.484467,240.045776 384.484467,245.735764 
	C382.613556,244.497681 381.859467,243.112213 381.298065,241.652618 
	C378.321564,233.914093 375.396301,226.155884 372.448029,218.406494 
	C368.239441,207.344528 368.237457,207.349792 356.227570,207.252594 
	C355.065491,207.243195 353.904175,207.133698 352.576630,206.386139 
	C351.563660,206.126053 350.517578,205.553116 349.543060,205.656235 
	C342.806915,206.368912 336.088715,207.248260 329.359100,208.025528 
	C314.591644,209.731232 299.820862,211.408188 284.259338,213.084702 
	C283.482269,213.210632 282.705231,213.336563 281.503662,213.367233 
	C281.503662,213.367233 281.209137,213.686584 280.406128,213.700577 
M145.454269,210.881989 
	C145.453094,214.688110 145.257629,218.510818 145.580185,222.289307 
	C145.666473,223.299988 147.366943,225.007263 148.271393,224.972321 
	C152.676376,224.802063 157.095947,224.333557 161.434540,223.550537 
	C162.670471,223.327484 164.511368,221.765244 164.599640,220.695404 
	C164.960388,216.323242 164.750076,211.903976 164.750076,207.242615 
	C158.664597,207.242615 153.537552,207.093796 148.432999,207.366440 
	C147.394653,207.421921 146.441071,209.064590 145.454269,210.881989 
M202.258331,207.863083 
	C195.728424,207.355774 189.201874,206.788528 182.664093,206.421234 
	C181.895493,206.378052 180.623138,207.264511 180.336884,208.009277 
	C178.771378,212.082092 177.441055,216.245300 175.724136,221.272766 
	C186.338898,219.880936 195.959915,218.619415 206.224182,217.273529 
	C205.013855,214.236710 203.874130,211.376999 202.258331,207.863083 
M223.762543,207.192291 
	C222.935928,207.196411 222.018784,207.439545 221.297226,207.166245 
	C216.184067,205.229675 215.358063,207.918976 215.812759,212.104019 
	C215.936127,213.239395 216.013123,214.379791 216.156525,216.040497 
	C222.443924,215.062485 228.535507,214.114929 234.940857,213.118576 
	C234.768494,211.014969 234.627869,209.298996 234.455338,207.193497 
	C230.917709,207.193497 227.799225,207.193497 223.762543,207.192291 
M263.799042,210.013397 
	C268.293274,209.366638 272.787476,208.719864 278.687225,207.870819 
	C269.446350,207.870819 261.577942,207.870819 253.709564,207.870819 
	C254.350464,209.527313 255.670181,210.693817 257.077362,210.811111 
	C258.987946,210.970383 260.965485,210.326843 263.799042,210.013397 
z"/>
<path fill="#C06EE1" opacity="1.000000" stroke="none" 
	d="
M273.308319,253.996765 
	C273.259644,251.618103 273.210999,249.239426 273.424316,246.101212 
	C273.798737,238.438065 274.149414,231.527481 273.947601,224.633087 
	C273.788483,219.198395 273.865784,214.408463 281.061737,214.167160 
	C281.301483,214.159134 281.527130,213.731735 281.784576,213.486694 
	C281.809784,213.473587 281.928162,213.462494 281.928162,213.462494 
	C282.705231,213.336563 283.482269,213.210632 284.748291,213.460938 
	C287.333740,214.497498 289.430206,215.157806 291.910828,215.939133 
	C292.071411,217.064667 292.278046,218.513123 292.548584,220.452713 
	C292.440430,221.900436 292.268402,222.857010 292.186096,223.930847 
	C292.229462,224.529846 292.183136,225.011566 292.551880,225.739090 
	C298.960693,226.341858 304.954437,226.698807 311.197052,227.070587 
	C311.461151,222.159744 311.678802,218.112732 311.994232,213.672607 
	C318.005859,212.831955 323.919739,212.384430 329.828308,212.412292 
	C329.823059,224.965591 329.823059,237.043503 329.823059,249.121414 
	C330.351929,249.177902 330.880768,249.234406 331.409637,249.290894 
	C336.124237,235.938156 340.838867,222.585419 345.960266,209.180695 
	C348.492218,208.442719 350.617371,207.756683 352.742523,207.070663 
	C353.904175,207.133698 355.065491,207.243195 356.227570,207.252594 
	C368.237457,207.349792 368.239441,207.344528 372.448029,218.406494 
	C375.396301,226.155884 378.321564,233.914093 381.298065,241.652618 
	C381.859467,243.112213 382.613556,244.497681 384.484467,245.735764 
	C384.484467,240.045776 384.488037,234.355804 384.483490,228.665833 
	C384.478821,222.837769 384.547516,217.007965 384.423462,211.182343 
	C384.359436,208.177017 385.115845,207.483414 388.524658,206.966354 
	C399.145050,205.355377 405.539520,210.610565 411.210510,218.396484 
	C414.887909,223.445374 419.170746,228.053299 423.946655,233.774399 
	C423.946655,224.461624 423.946655,216.272079 423.946655,207.652679 
	C429.795471,207.652679 435.162048,207.652679 440.818054,207.652679 
	C440.818054,225.892776 440.818054,243.987869 440.818054,262.133423 
	C429.713409,265.727081 422.636139,262.806549 414.501801,251.741867 
	C411.403137,247.526932 407.607056,243.824707 404.128845,239.888824 
	C403.572662,240.020828 403.016449,240.152832 402.460266,240.284851 
	C402.284546,244.227234 401.986053,248.168716 401.956543,252.112198 
	C401.873779,263.163055 401.918182,263.196289 390.810425,263.395081 
	C385.984711,263.481445 381.153015,263.505829 376.329559,263.366974 
	C371.443817,263.226410 366.395020,263.077637 367.105560,255.498550 
	C363.385529,255.498550 360.250946,255.498550 357.116364,255.498550 
	C354.164673,255.498550 351.212982,255.498550 347.711273,255.498550 
	C347.684814,263.149597 342.252655,263.582611 336.161621,263.444855 
	C328.220337,263.265259 320.271881,263.400909 311.551636,263.400909 
	C311.551636,256.225861 311.551636,249.355957 311.551636,242.314011 
	C305.446014,242.314011 300.106049,242.178970 294.788757,242.465408 
	C294.026459,242.506470 292.837769,244.549377 292.765411,245.722534 
	C292.489044,250.202881 292.397858,254.715302 292.606964,259.198486 
	C292.778839,262.884705 291.197723,263.784515 287.821228,263.550354 
	C283.730103,263.266602 279.607513,263.435974 275.254761,262.760071 
	C274.443420,259.406158 273.875885,256.701477 273.308319,253.996765 
M357.334259,227.593704 
	C355.316223,232.232758 353.298157,236.871811 351.023254,242.101303 
	C355.911957,242.101303 359.167480,242.101303 363.122131,242.101303 
	C361.297211,237.161438 359.604706,232.580093 357.334259,227.593704 
z"/>
<path fill="#BF6EE0" opacity="1.000000" stroke="none" 
	d="
M269.000793,215.488464 
	C269.732483,215.402283 270.464203,215.316086 271.556671,215.786804 
	C271.935638,226.209000 271.953857,236.074326 271.972076,245.939636 
	C271.916351,246.407318 271.860626,246.874985 271.519348,247.836273 
	C271.123016,248.809723 271.012268,249.289566 270.901550,249.769409 
	C267.736633,257.606323 257.923981,263.943481 249.163208,263.682343 
	C244.544907,263.544678 239.836853,263.691315 235.344864,262.812439 
	C230.872284,261.937317 226.619400,259.939453 221.931473,258.316650 
	C222.064865,259.727448 222.216797,261.334442 222.420105,263.484772 
	C218.174194,263.484772 214.140442,263.661163 210.129364,263.435150 
	C206.126175,263.209564 201.639053,263.546844 200.790817,257.738556 
	C200.671204,256.919556 198.925278,255.781906 197.897446,255.744537 
	C192.437195,255.545883 186.965897,255.651123 181.603439,255.651123 
	C179.685669,263.213043 179.686050,263.260895 171.060120,263.329376 
	C162.928040,263.393951 154.795059,263.343201 145.794006,263.343201 
	C145.794006,256.537598 145.794006,249.524109 145.794006,242.582581 
	C140.502182,242.334396 136.068054,242.253418 131.658691,241.879959 
	C128.054001,241.574661 126.459541,242.725876 126.700745,246.586105 
	C126.970360,250.900757 126.587059,255.253372 126.776360,259.576843 
	C126.902031,262.447021 125.638420,263.507477 123.016335,263.507843 
	C118.047440,263.508545 113.078537,263.508057 108.002914,263.508057 
	C107.605927,259.730194 107.265465,256.490173 106.918861,253.191788 
	C103.631248,255.686523 100.766594,258.893005 97.187073,260.389038 
	C84.893982,265.526764 72.537773,265.137482 60.989944,258.185547 
	C58.413136,256.634247 57.022552,253.112549 55.255798,249.809296 
	C61.884129,248.244049 68.342491,247.367523 74.800858,246.490997 
	C76.280037,250.793716 79.959358,249.977417 83.073799,249.735031 
	C88.427109,249.318344 90.621696,245.540283 91.505859,240.301025 
	C93.274765,240.140518 95.042183,239.931290 96.815773,239.829025 
	C100.960373,239.590073 104.720200,240.285431 108.852745,236.998032 
	C112.228142,234.312881 118.223534,234.818375 123.088486,234.129395 
	C134.200333,232.555786 145.327698,231.089462 156.457062,229.643570 
	C159.145966,229.294250 161.867203,229.193604 164.388153,228.993317 
	C164.388153,235.140076 164.388153,240.460938 164.388153,245.781815 
	C164.819519,245.945053 165.250885,246.108292 165.682266,246.271545 
	C166.821426,243.396088 168.020538,240.542694 169.089142,237.641251 
	C173.205750,226.463959 173.190170,226.457077 185.213287,226.367889 
	C186.687744,226.356964 188.162369,226.366394 190.226501,226.366394 
	C188.692596,231.661362 187.254852,236.624420 185.723907,241.909225 
	C189.333008,241.909225 192.457657,241.909225 196.086121,241.909225 
	C194.858734,236.640427 193.673996,231.554688 192.343506,225.843277 
	C196.693069,225.146225 201.167633,224.185455 205.687927,223.860229 
	C206.965546,223.768326 209.107742,225.249496 209.596085,226.500137 
	C211.387100,231.086945 212.648773,235.880417 214.109711,240.596100 
	C214.679932,240.580704 215.250137,240.565323 215.820358,240.549942 
	C215.820358,236.126633 216.148026,231.671555 215.723007,227.289490 
	C215.340958,223.350418 217.216431,221.866196 220.535095,221.484375 
	C225.087753,220.960602 229.665955,220.659027 234.913025,220.203171 
	C234.913025,227.103790 234.683533,233.555161 234.971878,239.983292 
	C235.321762,247.783264 240.445633,251.598312 247.229599,249.441513 
	C251.574249,248.060242 253.645752,245.003174 253.604279,240.428787 
	C253.543854,233.768478 253.577148,227.107361 253.537857,220.446793 
	C253.526459,218.514954 253.455322,216.626205 257.152283,217.102814 
	C261.669312,216.577515 265.335052,216.032990 269.000793,215.488464 
z"/>
<path fill="#FCADFE" opacity="1.000000" stroke="none" 
	d="
M246.189575,204.689865 
	C246.011200,204.737854 245.832825,204.785828 245.363098,204.311584 
	C244.834671,200.407150 244.608093,196.884598 240.248520,196.316971 
	C235.845917,195.743759 231.403641,195.449905 226.970367,195.163254 
	C226.261963,195.117447 225.177826,195.546524 224.833603,196.105042 
	C223.112671,198.897354 221.580475,201.806000 219.981918,204.673737 
	C218.599289,204.734085 217.216660,204.794434 215.412231,204.392014 
	C214.545563,200.751892 212.611694,196.493301 213.968781,194.624451 
	C216.711823,190.846924 217.139008,187.164154 217.388794,182.984482 
	C218.821075,182.116211 220.258743,181.459930 220.816345,180.358231 
	C221.818573,178.378098 222.292603,176.130630 222.989105,173.574646 
	C224.069031,169.207260 225.020218,165.213928 226.414322,161.381744 
	C226.559647,160.982239 229.411453,161.292267 230.840790,161.770920 
	C231.408661,161.961105 231.522598,163.506744 231.843201,164.435287 
	C232.302155,159.236206 236.031082,159.342377 238.966080,160.248718 
	C240.923355,160.853149 242.596619,163.223770 243.819275,165.167374 
	C245.780472,168.284912 247.263092,171.703522 248.947937,174.994904 
	C248.947937,174.994904 249.206604,175.262222 249.107712,175.786377 
	C251.327271,184.051224 252.063828,192.455811 259.088745,199.922714 
	C259.766296,197.122696 260.585236,195.421616 260.480835,193.779221 
	C260.320343,191.254715 258.976471,188.739868 259.114105,186.275620 
	C259.402252,181.116241 260.745544,176.005798 260.909790,170.851501 
	C261.289886,158.923935 261.109924,158.918198 272.921417,161.035492 
	C272.921417,161.035492 272.993103,161.010788 272.979004,161.425873 
	C274.442200,168.434875 278.950439,172.334259 284.744080,175.090927 
	C284.744080,175.090927 284.966583,175.167389 284.942535,175.677399 
	C285.036072,178.242615 285.153656,180.297836 285.271240,182.353073 
	C285.814423,182.557709 286.357605,182.762360 286.900787,182.967010 
	C288.258972,180.809387 290.299286,178.804214 290.823242,176.460129 
	C291.717438,172.459549 291.407288,168.200958 292.133820,164.145874 
	C292.403748,162.639328 294.137421,160.302521 295.254303,160.273148 
	C297.418091,160.216263 301.377228,161.302979 301.504944,162.308105 
	C302.133026,167.250458 301.929932,172.331589 301.655151,177.343704 
	C301.477234,180.588577 298.965637,184.252472 304.128174,186.283813 
	C305.255219,187.247711 306.208954,188.347839 307.304230,188.513779 
	C309.832275,188.896805 312.428986,188.826660 314.999817,189.334320 
	C316.120789,192.694916 317.239838,195.661530 318.034698,197.768707 
	C321.572388,198.833420 324.724945,199.782227 327.506714,200.791718 
	C325.402161,201.338120 323.668427,201.823822 321.934692,202.309540 
	C320.562408,202.506668 319.190094,202.703827 317.107666,202.654388 
	C313.541473,202.176376 311.267151,201.488800 309.715546,198.476028 
	C308.372406,195.868011 305.873566,193.855179 303.684326,191.348892 
	C299.705414,195.333969 299.972046,200.030716 299.981415,204.654373 
	C297.945831,204.715057 295.910217,204.775757 293.383484,204.422195 
	C292.222443,203.317444 291.560577,202.618973 290.881317,201.937836 
	C287.711639,198.759232 282.717072,196.035141 281.795013,192.303482 
	C280.443909,186.835495 276.549561,186.055923 273.020905,183.990021 
	C273.020905,183.990021 272.997223,183.997360 272.955200,183.667694 
	C271.603149,183.612930 269.801880,183.472626 269.120392,184.278870 
	C268.431244,185.094131 268.688660,186.862167 268.814331,188.185974 
	C269.261627,192.897018 269.829437,197.596619 270.351624,202.300552 
	C269.855743,202.411407 269.359863,202.522278 268.863983,202.633133 
	C267.770416,201.784485 266.676880,200.935822 266.005524,200.414841 
	C259.731415,204.092789 254.307419,201.015076 248.512985,199.561401 
	C247.785873,201.166351 246.987732,202.928101 246.189575,204.689865 
M229.471832,186.602692 
	C229.490707,186.988190 229.509567,187.373703 228.820450,188.097397 
	C228.237579,189.503815 227.654694,190.910233 227.413284,191.492737 
	C230.690338,191.492737 233.041138,191.397858 235.381088,191.516769 
	C238.298920,191.665054 239.140121,190.168716 238.707809,187.259705 
	C238.707809,187.259705 238.920044,186.992706 239.524704,186.897873 
	C238.821457,182.213013 238.200333,177.513107 237.347244,172.855698 
	C237.172012,171.899017 236.129715,171.101151 235.487076,170.230087 
	C234.709290,171.279007 233.931488,172.327927 233.269547,173.954819 
	C233.111343,174.298523 232.953125,174.642227 231.996521,174.997849 
	C229.183472,176.135818 227.417297,183.273697 229.471832,186.602692 
M277.499939,174.734161 
	C277.740326,174.987518 277.978485,175.243286 278.233490,175.480957 
	C278.240112,175.487122 278.431122,175.295456 278.536163,175.196060 
	C278.295502,174.942566 278.054810,174.689087 277.499939,174.734161 
M225.556625,186.511520 
	C225.556625,186.511520 225.480515,186.550629 225.556625,186.511520 
z"/>
<path fill="#FCADFE" opacity="1.000000" stroke="none" 
	d="
M310.999939,161.066467 
	C310.999969,161.066483 311.162994,160.788742 311.756348,160.847260 
	C320.655212,158.503845 329.038025,157.870102 336.875488,161.990601 
	C339.431458,163.334366 342.114563,166.401642 342.677643,169.109421 
	C343.519958,173.160065 339.215485,170.848541 337.388519,171.823685 
	C337.159302,171.946014 337.101471,172.389465 336.603027,172.760620 
	C335.508850,172.787979 334.775818,172.738831 333.979919,172.367065 
	C332.578735,171.044205 331.240448,170.043961 329.600098,168.966370 
	C328.528473,168.602631 327.758942,168.316223 326.881683,167.809723 
	C326.569122,167.326324 326.315735,167.123718 325.956024,166.867599 
	C325.898224,166.753403 325.563477,166.760498 325.563477,166.760498 
	C325.563477,166.760498 325.975739,167.019257 325.962463,167.220001 
	C325.949219,167.420731 325.982025,167.821747 325.588684,167.843903 
	C323.684448,168.246231 322.173584,168.626419 320.470032,169.083740 
	C320.044281,169.351669 319.935944,169.597458 319.975098,169.924469 
	C319.997894,169.950699 319.929840,169.964661 319.587891,169.988235 
	C318.676422,170.605423 318.106903,171.199051 317.537384,171.792664 
	C318.847595,172.856888 319.997375,174.361343 321.496368,174.907501 
	C327.305786,177.024185 333.226044,178.836716 339.105682,180.760559 
	C341.151093,181.429825 343.198364,182.093460 345.231720,182.774200 
	C345.218658,182.788696 345.241425,182.747437 345.209045,183.068756 
	C348.401520,184.137344 347.745789,181.274612 347.818481,179.999832 
	C348.097137,175.114731 347.807343,170.198486 348.042877,165.308960 
	C348.126923,163.564636 348.912628,160.493942 349.702118,160.385391 
	C352.703552,159.972717 355.842987,160.469849 358.914551,160.785507 
	C359.277863,160.822861 359.792664,161.831985 359.807709,162.401962 
	C359.884735,165.326706 359.600128,168.277145 359.888153,171.174225 
	C360.065948,172.962479 360.637848,175.015518 361.759094,176.330399 
	C363.218750,178.042206 374.967346,176.884308 377.084229,175.210938 
	C377.084229,175.210938 377.042358,175.076889 377.441193,175.019531 
	C380.862671,173.077423 380.649567,171.416016 377.494568,169.957687 
	C377.433136,169.530441 377.371704,169.103195 377.690491,168.303497 
	C380.702545,166.198257 380.003021,164.945557 377.497437,163.953140 
	C377.432770,163.224411 377.368103,162.495667 377.792572,161.403519 
	C382.463593,160.612961 386.645508,160.185822 390.071075,159.835922 
	C391.313507,162.237015 392.036072,163.633347 392.758606,165.029694 
	C392.805786,166.404633 392.852966,167.779572 392.486633,169.659912 
	C390.658264,172.312958 389.821350,174.392731 392.761993,176.028702 
	C392.809143,176.462296 392.856293,176.895905 392.609924,177.665649 
	C392.095154,178.168732 391.873932,178.335648 391.652679,178.502563 
	C392.022888,178.677277 392.393097,178.852020 392.763306,179.026764 
	C392.808441,180.080215 392.853607,181.133682 392.565887,182.628693 
	C392.405701,183.724426 392.578430,184.378616 392.751129,185.032791 
	C392.809814,186.419647 392.868500,187.806519 392.695374,189.822205 
	C392.291809,191.483139 392.120117,192.515213 391.948456,193.547302 
	C391.502838,193.624069 391.057251,193.700836 389.970398,193.540588 
	C388.039734,193.313965 386.675140,193.052750 385.474701,193.384888 
	C381.663361,194.439438 378.510925,194.886612 378.824982,189.243561 
	C378.862427,188.571167 377.507874,187.821289 376.591003,187.126190 
	C376.383484,187.145050 375.999115,186.984100 375.685516,186.721252 
	C371.248108,186.633453 367.124268,186.808502 362.815002,187.075104 
	C362.629578,187.166656 362.218872,187.117523 361.842224,187.108292 
	C360.742676,187.699371 359.295197,188.570236 359.403473,188.860168 
	C361.730713,195.092987 357.688660,196.308807 353.076233,197.244064 
	C352.623627,197.335861 352.333344,198.228287 351.967712,198.749084 
	C350.907562,198.812531 349.847412,198.875977 348.243652,198.753708 
	C347.114410,198.818192 346.528748,199.068405 345.943115,199.318604 
	C345.188538,199.437241 344.433990,199.555878 343.052979,199.485229 
	C340.932861,199.586731 339.439209,199.877502 337.945526,200.168274 
	C337.230652,200.395477 336.515747,200.622650 335.360016,200.477020 
	C333.606628,200.078537 332.294128,200.052856 330.987030,199.632294 
	C331.080017,198.428223 330.966125,197.527328 331.286255,196.824036 
	C334.561615,189.628815 334.583282,189.632843 327.326111,186.696396 
	C326.419464,186.329575 325.471588,185.766174 324.555054,185.788803 
	C322.975677,185.827774 321.405884,186.255920 319.605072,186.496918 
	C319.378052,186.473099 319.022369,186.186829 318.778839,185.888641 
	C317.276520,185.425980 316.017700,185.261490 314.554016,185.122894 
	C314.349121,185.148773 313.999786,184.928436 313.776611,184.713104 
	C313.156433,184.407593 312.759369,184.317398 312.239807,184.249710 
	C312.117310,184.272217 311.997650,184.053711 311.954376,183.692520 
	C309.766541,181.952164 307.622009,180.572998 305.228821,179.063690 
	C304.940857,178.390152 304.901550,177.846756 304.903381,176.848785 
	C304.834717,172.011337 304.730652,167.749161 309.471252,165.156204 
	C310.437408,164.627747 310.513550,162.472046 310.999939,161.066467 
M323.964752,163.342468 
	C324.071686,163.805969 324.178619,164.269455 324.285522,164.732956 
	C324.662537,164.526337 325.039581,164.319717 325.416595,164.113083 
	C325.111359,163.816666 324.806091,163.520233 323.964752,163.342468 
z"/>
<path fill="#F5AAF7" opacity="1.000000" stroke="none" 
	d="
M96.184723,203.950592 
	C96.184723,200.491592 96.184723,197.032593 96.184723,193.550232 
	C95.527794,193.596954 95.066254,193.513702 94.985756,193.652069 
	C89.541649,203.011475 80.959167,205.442688 70.836784,204.945801 
	C64.897659,204.654251 58.932514,204.892593 52.685646,204.892593 
	C52.685646,189.382751 52.685646,174.313110 52.685646,158.092514 
	C62.593933,158.553879 72.526199,158.474716 82.298904,159.684570 
	C87.732719,160.357269 92.258362,163.996765 94.911942,169.987427 
	C95.694099,171.794235 96.402855,172.911743 97.366440,174.352509 
	C97.755516,184.399902 97.889771,194.124054 97.718452,203.880981 
	C97.003494,203.926041 96.594109,203.938309 96.184723,203.950592 
M81.035698,187.094711 
	C81.198219,185.616898 81.364639,184.139496 81.522636,182.661209 
	C82.518250,173.345551 77.526199,168.722076 68.354393,170.323212 
	C68.354393,178.069794 68.354393,185.788559 68.354393,193.661636 
	C73.599327,193.382050 78.536957,193.469116 81.035698,187.094711 
z"/>
<path fill="#FCADFE" opacity="1.000000" stroke="none" 
	d="
M157.979324,204.656418 
	C151.966049,204.717484 145.952774,204.778534 139.460388,204.355881 
	C138.897095,200.058426 138.938828,196.235657 138.666443,192.435410 
	C138.558273,190.926208 137.753723,189.466934 137.190399,187.523438 
	C137.093033,181.315994 137.071533,175.570053 137.055893,169.593292 
	C137.057892,169.054565 137.043198,168.747147 137.238373,168.087158 
	C137.843826,165.208267 138.228546,162.682480 139.104568,160.115082 
	C148.057297,160.048370 156.519745,160.085037 164.979279,159.945969 
	C166.669647,159.918167 168.348999,159.219711 170.033432,158.830475 
	C171.737427,158.741013 173.441406,158.651566 175.640533,158.954712 
	C176.474487,159.988388 176.813324,160.629425 177.194290,161.633286 
	C177.223816,163.214752 177.211197,164.433426 177.064545,166.058319 
	C175.508926,166.977539 174.101349,167.881424 172.663223,167.932938 
	C167.601318,168.114288 162.523056,167.867035 157.464005,168.084671 
	C155.926208,168.150818 154.430389,169.193192 152.927429,169.862961 
	C152.939514,169.937469 152.789948,169.917099 152.460083,169.977264 
	C148.306244,172.494141 148.433228,173.465240 153.195084,176.067535 
	C153.656372,176.162064 153.836411,176.219833 154.302139,176.521957 
	C158.984299,177.176895 163.374512,177.691879 167.779755,177.955475 
	C170.100662,178.094360 171.984451,178.070358 172.058624,181.277588 
	C172.135529,184.604156 170.432114,185.110611 167.720428,185.030243 
	C163.502106,184.905212 159.273514,184.834534 155.058014,184.985260 
	C150.495132,185.148422 149.939606,188.063019 150.417557,191.910660 
	C150.986237,196.488708 153.513077,197.629517 157.631271,196.883072 
	C161.513458,196.179413 165.416702,195.141434 169.320419,195.096512 
	C178.760529,194.987854 178.026535,193.398514 177.741531,203.896194 
	C177.244400,204.164734 177.050919,204.400391 176.957581,204.718246 
	C174.608047,204.759705 172.258514,204.801163 169.377365,204.626755 
	C168.550049,204.518768 168.254364,204.626663 167.958664,204.734558 
	C165.929916,204.771942 163.901154,204.809296 161.431976,204.424652 
	C160.387589,203.420654 159.783646,202.838684 159.179703,202.256699 
	C158.779572,203.056610 158.379456,203.856506 157.979324,204.656418 
M142.985992,175.946762 
	C142.711258,175.159927 142.436523,174.373093 142.161789,173.586273 
	C141.845245,173.624176 141.528702,173.662094 141.212158,173.700012 
	C140.873383,176.577789 140.534607,179.455566 140.195831,182.333344 
	C140.875854,182.409744 141.555862,182.486145 142.235886,182.562546 
	C142.488083,180.623825 142.740280,178.685104 142.985992,175.946762 
z"/>
<path fill="#FCADFE" opacity="1.000000" stroke="none" 
	d="
M185.979980,204.658981 
	C185.248703,204.729828 184.517441,204.800690 183.374084,204.491577 
	C181.968781,203.367584 180.975571,202.623550 179.935760,201.517181 
	C179.923752,194.362808 180.132492,187.565765 179.935806,180.780457 
	C179.787994,175.681091 179.119568,170.596817 178.645142,165.173309 
	C178.634369,163.720932 178.661392,162.601059 178.945984,161.160583 
	C180.802200,160.561401 182.400833,160.282837 184.058334,160.399048 
	C184.636459,163.314133 185.155716,165.834457 185.674988,168.354767 
	C186.114624,168.300293 186.554260,168.245819 186.993896,168.191360 
	C186.993896,165.461517 186.993896,162.731689 187.411407,160.000824 
	C189.221008,159.999710 190.613129,159.999619 192.061401,160.364227 
	C193.780807,162.459518 202.724777,163.695587 204.381851,162.268097 
	C204.875290,161.843033 204.810898,160.770432 205.368927,160.003540 
	C207.491592,161.667130 209.247421,163.321671 211.155029,165.188202 
	C211.870270,165.260971 212.433746,165.121765 213.360245,165.037537 
	C217.283020,166.224335 217.055832,169.157578 216.671234,171.937958 
	C215.174606,171.284393 214.017776,170.696915 212.335403,169.842560 
	C212.227280,174.794495 215.865295,173.962418 218.000000,174.999695 
	C218.000000,175.000000 218.000122,175.000458 217.945435,175.387726 
	C217.593842,177.852844 217.296921,179.930695 216.654572,182.050995 
	C213.878830,184.408051 211.448486,186.722672 209.018158,189.037292 
	C207.601212,189.303009 206.184265,189.568726 204.304657,189.445618 
	C202.105850,188.349625 200.051666,185.102203 198.975540,189.666122 
	C197.583191,189.728790 196.190826,189.791443 194.332840,189.756927 
	C193.867203,189.659729 193.499619,189.671753 193.499619,189.671753 
	C193.499619,189.671753 193.885223,189.956863 193.885223,189.956863 
	C193.829056,191.033981 193.772888,192.111084 193.422150,193.599838 
	C193.258957,194.348892 193.390335,194.686295 193.521698,195.023712 
	C193.594742,196.398529 193.667786,197.773331 193.501526,199.641357 
	C193.379730,200.434570 193.497238,200.734589 193.614746,201.034607 
	C193.635696,201.449127 193.656647,201.863647 193.391617,202.542267 
	C193.105637,202.806366 192.716965,202.950882 192.357605,202.897751 
	C189.705170,202.497528 186.765961,200.007080 185.979980,204.658981 
M193.935913,179.077423 
	C193.935913,179.077423 193.915741,179.255844 194.083527,179.937271 
	C198.241577,183.750336 201.733353,183.677582 205.579590,178.250458 
	C206.921356,176.357208 206.196213,172.111481 205.032333,169.574417 
	C203.816925,166.925064 194.516129,166.442581 193.194183,168.812790 
	C191.394577,172.039474 190.488617,175.836075 193.935913,179.077423 
M208.541351,183.824356 
	C208.191299,183.819595 207.841110,183.811584 207.492081,183.828323 
	C207.483139,183.828766 207.477081,184.226624 207.486633,184.227402 
	C207.834900,184.255264 208.185196,184.257996 208.541351,183.824356 
M195.511963,188.451935 
	C195.511963,188.451935 195.550064,188.529190 195.511963,188.451935 
z"/>
<path fill="#E3A3E5" opacity="1.000000" stroke="none" 
	d="
M392.272400,193.652740 
	C392.120117,192.515213 392.291809,191.483139 392.695923,190.239899 
	C393.336304,188.609741 394.079895,187.194885 394.097504,185.771057 
	C394.206451,176.948242 394.152222,168.123413 394.152222,158.847809 
	C399.344025,158.847809 404.368683,158.847809 409.800903,158.847809 
	C409.800903,168.487823 409.800903,178.087677 409.800903,188.132187 
	C415.110535,187.484436 419.973663,186.891159 425.115875,186.263840 
	C425.115875,176.955078 425.115875,167.860489 425.115875,158.514313 
	C430.475098,158.514313 435.520569,158.514313 440.904907,158.514313 
	C440.904907,167.147888 440.904907,175.421951 440.904907,184.171082 
	C444.671417,183.952805 448.081909,185.091965 446.720367,189.116241 
	C445.980835,191.302109 442.677704,192.620636 439.882721,193.381317 
	C438.791290,195.128479 437.699860,196.875626 436.289337,198.386475 
	C434.008179,196.192200 432.046112,194.234222 430.084045,192.276245 
	C433.165375,192.502075 436.246674,192.727936 439.614838,192.974808 
	C439.355438,191.359573 439.058868,189.513000 438.784210,187.802795 
	C428.603607,189.163696 418.712738,190.485855 408.396759,191.286163 
	C407.991364,182.179169 408.161438,173.589478 407.901794,165.012787 
	C407.850891,163.331558 406.411957,160.587662 405.134460,160.272095 
	C402.235779,159.556046 399.039001,160.046585 395.027466,160.046585 
	C395.027466,171.598877 395.027466,182.319061 395.027466,193.039246 
	C394.217102,193.278885 393.406738,193.518524 392.272400,193.652740 
z"/>
<path fill="#C370E5" opacity="1.000000" stroke="none" 
	d="
M94.967232,209.105408 
	C95.522011,209.261139 96.076782,209.416855 96.824455,210.181213 
	C97.269432,211.369186 97.360451,212.245972 97.797943,212.482849 
	C103.595810,215.622131 106.973427,219.920166 104.776367,226.941833 
	C104.319397,226.968750 104.136101,226.969299 103.868088,226.827942 
	C103.450928,226.494949 103.203575,226.593689 102.680801,227.145233 
	C98.430870,227.812729 94.541451,228.317261 90.619675,228.485092 
	C87.787231,220.980469 84.354424,218.911453 77.944252,220.558838 
	C72.571548,221.939590 71.930099,226.490173 70.804703,231.178101 
	C66.339760,231.990906 62.137947,232.510422 57.585690,232.973495 
	C56.225353,231.920670 54.208824,230.701767 54.371754,229.964584 
	C55.307793,225.729645 56.241982,221.341034 58.207306,217.536911 
	C59.693291,214.660599 62.720165,212.580383 65.061279,210.145859 
	C65.061279,210.145859 65.097679,210.031647 65.564621,210.054504 
	C75.390724,208.197052 84.752937,206.637299 94.192062,209.654816 
	C94.373375,209.712799 94.705482,209.299057 94.967232,209.105408 
z"/>
<path fill="#FCADFE" opacity="1.000000" stroke="none" 
	d="
M98.024025,203.848206 
	C97.889771,194.124054 97.755516,184.399902 97.371048,173.925552 
	C97.006287,172.053635 96.891739,170.931900 96.777191,169.810181 
	C96.788475,169.097809 96.799759,168.385452 97.128555,167.180389 
	C97.308762,166.125427 97.171440,165.563156 97.034126,165.000900 
	C96.954887,163.605484 96.875648,162.210052 97.357620,160.410034 
	C100.356255,160.005417 102.793694,160.005417 105.175385,160.005417 
	C105.175385,170.480515 105.175385,180.350555 105.175385,190.220581 
	C105.558052,190.208725 105.940727,190.196884 106.323395,190.185043 
	C107.829559,185.894150 109.335724,181.603256 110.826477,177.356262 
	C116.056198,177.677338 121.125542,177.988571 126.321877,178.307587 
	C126.864052,181.027100 127.389297,183.661667 127.472290,186.435333 
	C122.107002,186.726074 117.183952,186.877701 111.919228,187.066071 
	C109.443222,188.395203 109.768593,189.334595 112.112442,190.359161 
	C112.191849,191.464905 112.152321,192.212906 111.831482,193.165512 
	C110.635674,194.838409 109.721199,196.306686 108.491325,198.281357 
	C111.650200,199.542587 114.125389,200.530853 116.600571,201.519104 
	C116.809853,199.507584 117.019142,197.496063 117.226257,195.505478 
	C119.944954,195.032410 122.973930,194.505371 126.409927,193.869003 
	C128.211838,193.829529 129.606735,193.899384 131.045929,194.267578 
	C132.060043,194.369110 133.029816,194.172318 134.250595,193.894623 
	C134.669830,193.864655 134.838089,193.915588 135.083313,194.335693 
	C135.767029,198.017456 136.373795,201.330078 136.980560,204.642685 
	C127.303734,204.710968 117.626907,204.779266 107.159317,204.565094 
	C103.587044,204.137848 100.805534,203.993027 98.024025,203.848206 
M107.176109,201.019394 
	C105.666611,198.284531 104.939758,198.254593 101.691200,201.510773 
	C103.782524,201.510773 105.202637,201.510773 107.176109,201.019394 
z"/>
<path fill="#F5AAF7" opacity="1.000000" stroke="none" 
	d="
M127.914536,186.296234 
	C127.389297,183.661667 126.864052,181.027100 126.321877,178.307587 
	C121.125542,177.988571 116.056198,177.677338 110.826477,177.356262 
	C109.335724,181.603256 107.829559,185.894150 106.323395,190.185043 
	C105.940727,190.196884 105.558052,190.208725 105.175385,190.220581 
	C105.175385,180.350555 105.175385,170.480515 105.175385,160.005417 
	C102.793694,160.005417 100.356255,160.005417 97.475311,160.004852 
	C98.007263,159.499481 98.980988,158.559738 99.958466,158.555832 
	C112.377426,158.506180 124.796928,158.590942 137.607483,159.050812 
	C138.000320,159.651550 138.001984,159.842987 137.617050,160.089859 
	C137.159500,162.910278 137.088577,165.675262 137.017654,168.440247 
	C137.043198,168.747147 137.057892,169.054565 136.587265,169.533203 
	C128.363708,169.779114 120.614647,169.854324 112.523514,170.121597 
	C112.462669,172.202347 112.743896,174.091034 113.489761,176.029877 
	C120.519073,176.080017 127.083733,176.080017 133.518494,176.080017 
	C133.518494,179.976074 133.518494,183.067963 133.518494,186.626541 
	C131.437149,186.503860 129.675842,186.400055 127.914536,186.296234 
M130.454056,179.178253 
	C130.806335,179.182999 131.158768,179.190994 131.510010,179.174088 
	C131.518997,179.173645 131.525009,178.773193 131.515396,178.772430 
	C131.164825,178.744446 130.812241,178.741791 130.454056,179.178253 
z"/>
<path fill="#EAA7ED" opacity="1.000000" stroke="none" 
	d="
M429.668762,192.307602 
	C432.046112,194.234222 434.008179,196.192200 435.967834,198.515732 
	C435.965393,198.881287 435.965240,198.957581 435.602753,199.005646 
	C434.571930,199.813705 433.903625,200.573700 433.235291,201.333694 
	C433.235291,201.333694 433.197662,201.207184 432.888397,201.200424 
	C430.711395,202.262192 428.843658,203.330719 426.975922,204.399261 
	C426.538635,204.551819 426.101349,204.704361 425.129364,204.667358 
	C424.047241,204.697205 423.499786,204.916595 422.952362,205.135986 
	C419.610260,205.212967 416.268127,205.289948 412.262817,204.955597 
	C408.447754,203.681763 405.295898,202.819229 402.144012,201.956711 
	C398.645081,200.712891 395.081299,198.901093 392.727783,203.832977 
	C392.442810,204.430145 391.159027,204.784393 390.310455,204.841919 
	C383.555878,205.299835 376.797058,205.735153 370.032288,205.950653 
	C369.195984,205.977295 368.317261,204.671936 367.458191,203.983826 
	C367.529572,203.501694 367.600952,203.019562 367.672302,202.537430 
	C388.199371,199.137939 408.726410,195.738449 429.668762,192.307602 
z"/>
<path fill="#B86DD6" opacity="1.000000" stroke="none" 
	d="
M105.050049,226.915451 
	C106.973427,219.920166 103.595810,215.622131 97.797943,212.482849 
	C97.360451,212.245972 97.269432,211.369186 96.999123,210.421494 
	C100.281151,212.445023 103.581398,214.836914 107.004776,217.318054 
	C107.216682,214.405609 107.449783,211.201996 107.712090,207.596954 
	C113.842186,207.596954 120.037323,207.596954 126.849045,207.596954 
	C126.849045,213.099091 126.849045,218.374985 126.483139,224.280670 
	C119.094841,225.578781 112.072449,226.247116 105.050049,226.915451 
z"/>
<path fill="#FCADFE" opacity="1.000000" stroke="none" 
	d="
M395.358124,193.050262 
	C395.027466,182.319061 395.027466,171.598877 395.027466,160.046585 
	C399.039001,160.046585 402.235779,159.556046 405.134460,160.272095 
	C406.411957,160.587662 407.850891,163.331558 407.901794,165.012787 
	C408.161438,173.589478 407.991364,182.179169 407.964905,191.186920 
	C407.505890,191.671677 407.053558,191.733826 405.968933,191.539047 
	C402.556915,191.823196 399.777252,192.364243 396.997589,192.905304 
	C396.561310,192.957291 396.125061,193.009277 395.358124,193.050262 
z"/>
<path fill="#B86DD6" opacity="1.000000" stroke="none" 
	d="
M145.451355,210.428787 
	C146.441071,209.064590 147.394653,207.421921 148.432999,207.366440 
	C153.537552,207.093796 158.664597,207.242615 164.750076,207.242615 
	C164.750076,211.903976 164.960388,216.323242 164.599640,220.695404 
	C164.511368,221.765244 162.670471,223.327484 161.434540,223.550537 
	C157.095947,224.333557 152.676376,224.802063 148.271393,224.972321 
	C147.366943,225.007263 145.666473,223.299988 145.580185,222.289307 
	C145.257629,218.510818 145.453094,214.688110 145.451355,210.428787 
z"/>
<path fill="#DD9FE1" opacity="1.000000" stroke="none" 
	d="
M104.776367,226.941833 
	C112.072449,226.247116 119.094841,225.578781 126.456024,224.789627 
	C130.232040,224.251190 133.661285,223.703949 137.111145,223.491425 
	C138.211304,223.423645 139.366180,224.244339 140.496033,224.658493 
	C140.388245,225.227631 140.280457,225.796783 140.172653,226.365921 
	C132.231720,227.222992 124.272881,227.941330 116.353279,228.963715 
	C94.590240,231.773178 72.846741,234.734009 51.083820,237.544388 
	C49.601116,237.735840 48.021542,237.177139 46.487019,236.967316 
	C46.544598,236.402939 46.602173,235.838577 46.659752,235.274200 
	C48.194767,234.878906 49.729786,234.483612 52.035408,234.036835 
	C54.516048,233.666870 56.226089,233.348389 57.936131,233.029922 
	C62.137947,232.510422 66.339760,231.990906 71.227158,231.328125 
	C78.159164,230.397171 84.405602,229.609482 90.652031,228.821793 
	C94.541451,228.317261 98.430870,227.812729 102.908554,227.152313 
	C103.496819,226.996445 103.952797,226.969849 103.952797,226.969849 
	C104.136101,226.969299 104.319397,226.968750 104.776367,226.941833 
z"/>
<path fill="#B86DD6" opacity="1.000000" stroke="none" 
	d="
M202.496368,208.190186 
	C203.874130,211.376999 205.013855,214.236710 206.224182,217.273529 
	C195.959915,218.619415 186.338898,219.880936 175.724136,221.272766 
	C177.441055,216.245300 178.771378,212.082092 180.336884,208.009277 
	C180.623138,207.264511 181.895493,206.378052 182.664093,206.421234 
	C189.201874,206.788528 195.728424,207.355774 202.496368,208.190186 
z"/>
<path fill="#DD9FE1" opacity="1.000000" stroke="none" 
	d="
M75.199997,246.381195 
	C68.342491,247.367523 61.884129,248.244049 55.245071,249.436432 
	C50.102036,249.857132 45.133999,249.849930 40.179123,250.101715 
	C36.110249,250.308472 32.057011,250.822922 27.996838,251.200974 
	C27.780476,250.689514 27.564112,250.178040 27.347748,249.666565 
	C28.381805,249.011749 29.359324,247.915878 30.459253,247.774872 
	C36.806778,246.961136 43.223427,246.627808 49.537746,245.631561 
	C55.045742,244.762558 60.397301,242.635086 65.913109,242.153671 
	C72.065186,241.616730 78.325737,242.280624 84.535645,242.513428 
	C85.162300,242.536896 85.765297,243.191330 87.749771,244.360153 
	C82.733864,245.149124 79.166504,245.710251 75.199997,246.381195 
z"/>
<path fill="#E3A3E5" opacity="1.000000" stroke="none" 
	d="
M376.612671,175.256805 
	C374.967346,176.884308 363.218750,178.042206 361.759094,176.330399 
	C360.637848,175.015518 360.065948,172.962479 359.888153,171.174225 
	C359.600128,168.277145 359.884735,165.326706 359.807709,162.401962 
	C359.792664,161.831985 359.277863,160.822861 358.914551,160.785507 
	C355.842987,160.469849 352.703552,159.972717 349.702118,160.385391 
	C348.912628,160.493942 348.126923,163.564636 348.042877,165.308960 
	C347.807343,170.198486 348.097137,175.114731 347.818481,179.999832 
	C347.745789,181.274612 348.401520,184.137344 345.465363,182.763428 
	C345.754028,179.101532 345.754028,176.066284 345.754028,172.684128 
	C342.548309,172.684128 339.756256,172.684128 336.964233,172.684128 
	C337.101471,172.389465 337.159302,171.946014 337.388519,171.823685 
	C339.215485,170.848541 343.519958,173.160065 342.677643,169.109421 
	C342.114563,166.401642 339.431458,163.334366 336.875488,161.990601 
	C329.038025,157.870102 320.655212,158.503845 311.917297,160.843353 
	C322.095428,154.563644 336.853271,157.078918 345.978821,167.039124 
	C345.978821,164.053757 345.978821,161.501801 345.978821,158.673691 
	C351.299225,158.673691 356.211121,158.673691 361.720093,158.673691 
	C361.720093,164.188126 361.720093,169.554657 361.720093,175.302689 
	C366.917114,175.302689 371.529114,175.302689 376.612671,175.256805 
z"/>
<path fill="#DD9FE1" opacity="1.000000" stroke="none" 
	d="
M292.484711,219.961563 
	C292.278046,218.513123 292.071411,217.064667 291.910828,215.939133 
	C289.430206,215.157806 287.333740,214.497498 285.144348,213.467041 
	C299.820862,211.408188 314.591644,209.731232 329.359100,208.025528 
	C336.088715,207.248260 342.806915,206.368912 349.543060,205.656235 
	C350.517578,205.553116 351.563660,206.126053 352.659576,206.728394 
	C350.617371,207.756683 348.492218,208.442719 345.599762,209.277054 
	C339.832825,210.262543 334.833191,211.099716 329.833588,211.936905 
	C323.919739,212.384430 318.005859,212.831955 311.688782,213.440491 
	C306.776337,213.930557 302.267609,214.506546 297.757874,214.514236 
	C293.818909,214.520966 291.917053,215.888306 292.484711,219.961563 
z"/>
<path fill="#F1AAF3" opacity="1.000000" stroke="none" 
	d="
M310.624634,161.091293 
	C310.513550,162.472046 310.437408,164.627747 309.471252,165.156204 
	C304.730652,167.749161 304.834717,172.011337 304.689453,177.157516 
	C304.295929,180.612457 304.157532,183.304062 304.019135,185.995682 
	C298.965637,184.252472 301.477234,180.588577 301.655151,177.343704 
	C301.929932,172.331589 302.133026,167.250458 301.504944,162.308105 
	C301.377228,161.302979 297.418091,160.216263 295.254303,160.273148 
	C294.137421,160.302521 292.403748,162.639328 292.133820,164.145874 
	C291.407288,168.200958 291.717438,172.459549 290.823242,176.460129 
	C290.299286,178.804214 288.258972,180.809387 286.900787,182.967010 
	C286.357605,182.762360 285.814423,182.557709 285.271240,182.353073 
	C285.153656,180.297836 285.036072,178.242615 284.893463,175.784302 
	C285.993256,176.348083 287.118073,177.314957 288.929291,178.871841 
	C288.929291,171.965683 288.929291,165.662521 288.929291,158.910187 
	C294.249207,158.910187 298.956360,158.910187 304.025177,158.910187 
	C304.250977,160.579559 304.508087,162.480179 304.819244,164.780594 
	C306.792053,163.449249 308.520691,162.282684 310.624634,161.091293 
z"/>
<path fill="#F1AAF3" opacity="1.000000" stroke="none" 
	d="
M272.801819,160.687317 
	C261.109924,158.918198 261.289886,158.923935 260.909790,170.851501 
	C260.745544,176.005798 259.402252,181.116241 259.114105,186.275620 
	C258.976471,188.739868 260.320343,191.254715 260.480835,193.779221 
	C260.585236,195.421616 259.766296,197.122696 259.088745,199.922714 
	C252.063828,192.455811 251.327271,184.051224 249.075836,175.969604 
	C251.544434,181.334671 253.946045,187.040649 256.347656,192.746628 
	C256.712463,192.735916 257.077271,192.725189 257.442078,192.714478 
	C257.442078,187.125931 257.442078,181.537384 257.442078,175.948837 
	C257.442078,170.331436 257.442078,164.714035 257.442078,157.668335 
	C262.799683,158.607254 267.740967,159.473190 272.801819,160.687317 
z"/>
<path fill="#F1AAF3" opacity="1.000000" stroke="none" 
	d="
M211.003235,164.976227 
	C209.247421,163.321671 207.491592,161.667130 205.367371,159.713074 
	C204.999619,159.219894 205.000259,159.026199 205.000900,158.832504 
	C211.431580,158.602951 211.604767,158.742691 220.371185,171.377701 
	C221.805725,167.919235 222.854111,164.477005 224.581100,161.417877 
	C228.217880,154.975800 234.412231,159.918121 239.257309,158.532166 
	C241.736404,157.823013 243.458191,158.725998 244.288422,161.714111 
	C245.476303,165.989426 247.372101,170.068054 248.956787,174.612793 
	C247.263092,171.703522 245.780472,168.284912 243.819275,165.167374 
	C242.596619,163.223770 240.923355,160.853149 238.966080,160.248718 
	C236.031082,159.342377 232.302155,159.236206 231.843201,164.435287 
	C231.522598,163.506744 231.408661,161.961105 230.840790,161.770920 
	C229.411453,161.292267 226.559647,160.982239 226.414322,161.381744 
	C225.020218,165.213928 224.069031,169.207260 222.671219,173.580627 
	C220.901062,174.338028 219.450592,174.669250 218.000122,175.000458 
	C218.000122,175.000458 218.000000,175.000000 217.996124,174.665909 
	C217.665207,173.555893 217.338135,172.779968 217.011063,172.004044 
	C217.055832,169.157578 217.283020,166.224335 213.205353,164.833206 
	C212.126038,164.708008 211.564636,164.842117 211.003235,164.976227 
z"/>
<path fill="#B86DD6" opacity="1.000000" stroke="none" 
	d="
M224.221634,207.192902 
	C227.799225,207.193497 230.917709,207.193497 234.455338,207.193497 
	C234.627869,209.298996 234.768494,211.014969 234.940857,213.118576 
	C228.535507,214.114929 222.443924,215.062485 216.156525,216.040497 
	C216.013123,214.379791 215.936127,213.239395 215.812759,212.104019 
	C215.358063,207.918976 216.184067,205.229675 221.297226,207.166245 
	C222.018784,207.439545 222.935928,207.196411 224.221634,207.192902 
z"/>
<path fill="#F1AAF3" opacity="1.000000" stroke="none" 
	d="
M246.576019,204.784119 
	C246.987732,202.928101 247.785873,201.166351 248.512985,199.561401 
	C254.307419,201.015076 259.731415,204.092789 266.005524,200.414841 
	C266.676880,200.935822 267.770416,201.784485 268.863983,202.633133 
	C269.359863,202.522278 269.855743,202.411407 270.351624,202.300552 
	C269.829437,197.596619 269.261627,192.897018 268.814331,188.185974 
	C268.688660,186.862167 268.431244,185.094131 269.120392,184.278870 
	C269.801880,183.472626 271.603149,183.612930 272.962585,183.656433 
	C272.629608,186.232697 272.005432,188.481033 271.916290,190.750381 
	C271.741577,195.199097 271.864929,199.659531 271.864929,204.878357 
	C263.374817,204.878357 255.168640,204.878357 246.576019,204.784119 
z"/>
<path fill="#E3A3E5" opacity="1.000000" stroke="none" 
	d="
M352.363586,198.785080 
	C352.333344,198.228287 352.623627,197.335861 353.076233,197.244064 
	C357.688660,196.308807 361.730713,195.092987 359.403473,188.860168 
	C359.295197,188.570236 360.742676,187.699371 361.704834,187.545502 
	C361.944122,190.034149 361.944122,192.076340 361.944122,194.307312 
	C364.913849,193.882660 367.311615,193.543015 369.708344,193.196182 
	C372.204742,192.834915 374.700134,192.466705 377.428741,192.067474 
	C377.163879,189.982803 376.981232,188.545059 376.798523,187.107315 
	C377.507874,187.821289 378.862427,188.571167 378.824982,189.243561 
	C378.510925,194.886612 381.663361,194.439438 385.474701,193.384888 
	C386.675140,193.052750 388.039734,193.313965 389.628540,193.527695 
	C380.199005,194.832489 370.462097,195.847519 360.746460,197.036407 
	C358.051697,197.366180 355.420044,198.212006 352.363586,198.785080 
z"/>
<path fill="#F1AAF3" opacity="1.000000" stroke="none" 
	d="
M300.414612,204.748169 
	C299.972046,200.030716 299.705414,195.333969 303.684326,191.348892 
	C305.873566,193.855179 308.372406,195.868011 309.715546,198.476028 
	C311.267151,201.488800 313.541473,202.176376 316.680969,202.648834 
	C311.592163,203.540573 306.219971,204.191284 300.414612,204.748169 
z"/>
<path fill="#F1AAF3" opacity="1.000000" stroke="none" 
	d="
M220.375244,204.768585 
	C221.580475,201.806000 223.112671,198.897354 224.833603,196.105042 
	C225.177826,195.546524 226.261963,195.117447 226.970367,195.163254 
	C231.403641,195.449905 235.845917,195.743759 240.248520,196.316971 
	C244.608093,196.884598 244.834671,200.407150 245.096558,204.235977 
	C243.913940,202.897369 242.706528,201.112183 240.815475,198.316208 
	C237.644791,198.316208 233.198242,198.067841 228.813110,198.477249 
	C227.598587,198.590637 226.001877,200.483078 225.571548,201.867371 
	C224.745636,204.524216 223.220001,205.226959 220.375244,204.768585 
z"/>
<path fill="#F1AAF3" opacity="1.000000" stroke="none" 
	d="
M209.403534,189.053131 
	C211.448486,186.722672 213.878830,184.408051 216.653824,182.297729 
	C216.998489,182.502029 216.997559,182.995728 216.997559,182.995728 
	C217.139008,187.164154 216.711823,190.846924 213.968781,194.624451 
	C212.611694,196.493301 214.545563,200.751892 215.004852,204.303726 
	C213.085632,204.678207 211.151993,204.678207 208.860443,204.678207 
	C210.479233,199.199097 212.022614,193.975174 213.803284,187.948135 
	C211.780838,188.512817 210.784882,188.790894 209.403534,189.053131 
z"/>
<path fill="#F1AAF3" opacity="1.000000" stroke="none" 
	d="
M273.064148,184.336578 
	C276.549561,186.055923 280.443909,186.835495 281.795013,192.303482 
	C282.717072,196.035141 287.711639,198.759232 290.881317,201.937836 
	C291.560577,202.618973 292.222443,203.317444 292.955688,204.329865 
	C291.913666,204.581726 290.294678,204.960251 289.781555,204.372803 
	C284.124420,197.896133 278.639191,191.269272 273.064148,184.336578 
z"/>
<path fill="#9B54B8" opacity="1.000000" stroke="none" 
	d="
M272.266785,245.902985 
	C271.953857,236.074326 271.935638,226.209000 271.911438,215.905380 
	C274.738983,214.878250 277.572540,214.289413 280.934082,213.614197 
	C281.462067,213.527817 281.759369,213.499817 281.759369,213.499817 
	C281.527130,213.731735 281.301483,214.159134 281.061737,214.167160 
	C273.865784,214.408463 273.788483,219.198395 273.947601,224.633087 
	C274.149414,231.527481 273.798737,238.438065 273.416504,245.654587 
	C272.951630,245.933777 272.756561,245.900055 272.266785,245.902985 
z"/>
<path fill="#9B54B8" opacity="1.000000" stroke="none" 
	d="
M263.356689,210.020508 
	C260.965485,210.326843 258.987946,210.970383 257.077362,210.811111 
	C255.670181,210.693817 254.350464,209.527313 253.709564,207.870819 
	C261.577942,207.870819 269.446350,207.870819 278.687225,207.870819 
	C272.787476,208.719864 268.293274,209.366638 263.356689,210.020508 
z"/>
<path fill="#B86DD6" opacity="1.000000" stroke="none" 
	d="
M57.585690,232.973495 
	C56.226089,233.348389 54.516048,233.666870 52.413071,233.958466 
	C53.140900,228.673141 53.447712,223.035553 55.660252,218.285675 
	C57.210400,214.957840 61.361885,212.841736 64.706444,210.165161 
	C62.720165,212.580383 59.693291,214.660599 58.207306,217.536911 
	C56.241982,221.341034 55.307793,225.729645 54.371754,229.964584 
	C54.208824,230.701767 56.225353,231.920670 57.585690,232.973495 
z"/>
<path fill="#F1AAF3" opacity="1.000000" stroke="none" 
	d="
M138.003662,160.034424 
	C138.001984,159.842987 138.000320,159.651550 137.999634,159.172974 
	C148.379547,158.766083 158.758499,158.646362 169.585449,158.678558 
	C168.348999,159.219711 166.669647,159.918167 164.979279,159.945969 
	C156.519745,160.085037 148.057297,160.048370 138.953323,160.090195 
	C138.310760,160.106918 138.003662,160.034424 138.003662,160.034424 
z"/>
<path fill="#B86DD6" opacity="1.000000" stroke="none" 
	d="
M94.687469,208.868317 
	C94.705482,209.299057 94.373375,209.712799 94.192062,209.654816 
	C84.752937,206.637299 75.390724,208.197052 65.616272,210.084900 
	C74.710983,205.096512 84.495056,205.578796 94.687469,208.868317 
z"/>
<path fill="#F5AAF7" opacity="1.000000" stroke="none" 
	d="
M204.613556,158.694199 
	C205.000259,159.026199 204.999619,159.219894 205.000549,159.704041 
	C204.810898,160.770432 204.875290,161.843033 204.381851,162.268097 
	C202.724777,163.695587 193.780807,162.459518 192.246826,160.276108 
	C192.591522,159.486877 192.806976,159.150452 193.022430,158.814026 
	C196.757034,158.727982 200.491623,158.641937 204.613556,158.694199 
z"/>
<path fill="#E3A3E5" opacity="1.000000" stroke="none" 
	d="
M392.853760,164.600800 
	C392.036072,163.633347 391.313507,162.237015 390.071075,159.835922 
	C386.645508,160.185822 382.463593,160.612961 377.881531,161.045807 
	C378.054474,160.092361 378.584198,158.335861 379.207550,158.302002 
	C383.629547,158.061691 388.070709,158.174088 392.948883,158.174088 
	C392.948883,160.629837 392.948883,162.400879 392.853760,164.600800 
z"/>
<path fill="#F1AAF3" opacity="1.000000" stroke="none" 
	d="
M284.726654,174.754333 
	C278.950439,172.334259 274.442200,168.434875 272.964386,161.460861 
	C276.878967,165.526413 280.794098,169.972076 284.726654,174.754333 
z"/>
<path fill="#F1AAF3" opacity="1.000000" stroke="none" 
	d="
M192.601959,158.671814 
	C192.806976,159.150452 192.591522,159.486877 192.190643,159.911407 
	C190.613129,159.999619 189.221008,159.999710 187.037231,159.999573 
	C185.496857,160.000977 184.748169,160.002625 183.999466,160.004272 
	C182.400833,160.282837 180.802200,160.561401 178.697357,161.081772 
	C177.844803,161.305878 177.498489,161.288177 177.152161,161.270477 
	C176.813324,160.629425 176.474487,159.988388 176.048508,159.089691 
	C181.368073,158.731216 186.774780,158.630417 192.601959,158.671814 
z"/>
<path fill="#F1AAF3" opacity="1.000000" stroke="none" 
	d="
M137.316040,204.737640 
	C136.373795,201.330078 135.767029,198.017456 135.419601,194.149261 
	C136.208038,191.724091 136.737137,189.854507 137.266235,187.984924 
	C137.753723,189.466934 138.558273,190.926208 138.666443,192.435410 
	C138.938828,196.235657 138.897095,200.058426 139.000793,204.268616 
	C138.564026,204.720901 138.107773,204.776749 137.316040,204.737640 
z"/>
<path fill="#E3A3E5" opacity="1.000000" stroke="none" 
	d="
M330.981598,200.027191 
	C332.294128,200.052856 333.606628,200.078537 334.977905,200.408463 
	C330.949646,201.230850 326.862671,201.748993 322.355194,202.288330 
	C323.668427,201.823822 325.402161,201.338120 327.832764,200.822998 
	C329.346985,200.538116 330.164276,200.282639 330.981598,200.027191 
z"/>
<path fill="#E3A3E5" opacity="1.000000" stroke="none" 
	d="
M402.372131,202.204346 
	C405.295898,202.819229 408.447754,203.681763 411.822571,204.831482 
	C408.897095,204.229767 405.748688,203.340881 402.372131,202.204346 
z"/>
<path fill="#F1AAF3" opacity="1.000000" stroke="none" 
	d="
M186.367828,204.755219 
	C186.765961,200.007080 189.705170,202.497528 192.412369,203.295654 
	C192.876541,204.009506 192.926590,204.272324 192.976624,204.535126 
	C190.902969,204.640564 188.829330,204.746017 186.367828,204.755219 
z"/>
<path fill="#9B54B8" opacity="1.000000" stroke="none" 
	d="
M268.576477,215.453812 
	C265.335052,216.032990 261.669312,216.577515 257.564758,217.074524 
	C260.801331,216.491089 264.476746,215.955124 268.576477,215.453812 
z"/>
<path fill="#9B54B8" opacity="1.000000" stroke="none" 
	d="
M273.212067,254.423950 
	C273.875885,256.701477 274.443420,259.406158 275.019348,262.524445 
	C274.390442,260.242401 273.753143,257.546753 273.212067,254.423950 
z"/>
<path fill="#E3A3E5" opacity="1.000000" stroke="none" 
	d="
M397.422699,193.007050 
	C399.777252,192.364243 402.556915,191.823196 405.625671,191.504913 
	C403.225769,192.188065 400.536774,192.648422 397.422699,193.007050 
z"/>
<path fill="#E3A3E5" opacity="1.000000" stroke="none" 
	d="
M427.306641,204.384918 
	C428.843658,203.330719 430.711395,202.262192 432.942261,201.238525 
	C431.416046,202.312469 429.526672,203.341522 427.306641,204.384918 
z"/>
<path fill="#E3A3E5" opacity="1.000000" stroke="none" 
	d="
M377.372925,170.369217 
	C380.649567,171.416016 380.862671,173.077423 377.511353,175.017212 
	C377.205566,173.641739 377.228424,172.211243 377.372925,170.369217 
z"/>
<path fill="#E3A3E5" opacity="1.000000" stroke="none" 
	d="
M392.856018,175.603302 
	C389.821350,174.392731 390.658264,172.312958 392.415833,170.067520 
	C392.822357,171.705795 392.886200,173.441833 392.856018,175.603302 
z"/>
<path fill="#F1AAF3" opacity="1.000000" stroke="none" 
	d="
M199.301483,189.763763 
	C200.051666,185.102203 202.105850,188.349625 203.931351,189.365677 
	C203.576218,189.743851 203.131714,189.813141 202.256775,189.673126 
	C201.543427,189.559662 201.260529,189.655502 200.977631,189.751373 
	C200.527557,189.788055 200.077484,189.824738 199.301483,189.763763 
z"/>
<path fill="#C890CA" opacity="1.000000" stroke="none" 
	d="
M179.982361,201.879547 
	C180.975571,202.623550 181.968781,203.367584 183.008224,204.439056 
	C181.306290,204.821304 179.558151,204.876114 177.383789,204.824585 
	C177.050919,204.400391 177.244400,204.164734 178.063202,203.891632 
	C179.053024,203.141159 179.517700,202.510345 179.982361,201.879547 
z"/>
<path fill="#C890CA" opacity="1.000000" stroke="none" 
	d="
M97.718452,203.880997 
	C100.805534,203.993027 103.587044,204.137848 106.694412,204.514618 
	C103.487419,204.753891 99.954552,204.761185 96.303207,204.359543 
	C96.594109,203.938309 97.003494,203.926041 97.718452,203.880997 
z"/>
<path fill="#E3A3E5" opacity="1.000000" stroke="none" 
	d="
M377.374878,164.351730 
	C380.003021,164.945557 380.702545,166.198257 377.782684,167.989685 
	C377.413879,166.949005 377.333099,165.849655 377.374878,164.351730 
z"/>
<path fill="#E3A3E5" opacity="1.000000" stroke="none" 
	d="
M338.314667,200.214417 
	C339.439209,199.877502 340.932861,199.586731 342.669006,199.497589 
	C341.502258,199.886337 340.093018,200.073441 338.314667,200.214417 
z"/>
<path fill="#F1AAF3" opacity="1.000000" stroke="none" 
	d="
M158.352783,204.755463 
	C158.379456,203.856506 158.779572,203.056610 159.179703,202.256699 
	C159.783646,202.838684 160.387589,203.420654 161.005951,204.334625 
	C160.255676,204.729263 159.490967,204.791885 158.352783,204.755463 
z"/>
<path fill="#8D638C" opacity="1.000000" stroke="none" 
	d="
M96.484100,169.852936 
	C96.891739,170.931900 97.006287,172.053635 97.116226,173.602295 
	C96.402855,172.911743 95.694099,171.794235 95.007278,170.321854 
	C95.416489,169.943222 95.803757,169.919464 96.484100,169.852936 
z"/>
<path fill="#E3A3E5" opacity="1.000000" stroke="none" 
	d="
M433.538818,201.252045 
	C433.903625,200.573700 434.571930,199.813705 435.564636,199.003693 
	C435.206818,199.692596 434.524597,200.431488 433.538818,201.252045 
z"/>
<path fill="#E3A3E5" opacity="1.000000" stroke="none" 
	d="
M392.845581,184.692856 
	C392.578430,184.378616 392.405701,183.724426 392.493347,183.018555 
	C392.815765,183.428864 392.877899,183.890900 392.845581,184.692856 
z"/>
<path fill="#E3A3E5" opacity="1.000000" stroke="none" 
	d="
M346.192322,199.491989 
	C346.528748,199.068405 347.114410,198.818192 347.844421,198.758087 
	C347.473053,199.187225 346.957275,199.426300 346.192322,199.491989 
z"/>
<path fill="#E3A3E5" opacity="1.000000" stroke="none" 
	d="
M423.139954,205.265228 
	C423.499786,204.916595 424.047241,204.697205 424.771057,204.664886 
	C424.407501,205.032776 423.867523,205.213623 423.139954,205.265228 
z"/>
<path fill="#F1AAF3" opacity="1.000000" stroke="none" 
	d="
M193.619293,194.760773 
	C193.390335,194.686295 193.258957,194.348892 193.322296,193.992615 
	C193.583633,194.148453 193.650253,194.323151 193.619293,194.760773 
z"/>
<path fill="#F5AAF7" opacity="1.000000" stroke="none" 
	d="
M96.917175,165.326874 
	C97.171440,165.563156 97.308762,166.125427 97.241180,166.842316 
	C96.957596,166.548904 96.878906,166.100891 96.917175,165.326874 
z"/>
<path fill="#9B54B8" opacity="1.000000" stroke="none" 
	d="
M271.115906,249.615814 
	C271.012268,249.289566 271.123016,248.809723 271.437073,248.179840 
	C271.537018,248.507263 271.433685,248.984741 271.115906,249.615814 
z"/>
<path fill="#E3A3E5" opacity="1.000000" stroke="none" 
	d="
M392.846802,178.763229 
	C392.393097,178.852020 392.022888,178.677277 391.652679,178.502563 
	C391.873932,178.335648 392.095154,178.168732 392.540039,177.987152 
	C392.819244,178.148239 392.874786,178.323975 392.846802,178.763229 
z"/>
<path fill="#C890CA" opacity="1.000000" stroke="none" 
	d="
M193.202820,204.540253 
	C192.926590,204.272324 192.876541,204.009506 192.771729,203.348785 
	C192.716965,202.950882 193.105637,202.806366 193.309280,202.845139 
	C193.484955,203.437729 193.456985,203.991562 193.202820,204.540253 
z"/>
<path fill="#DD9FE1" opacity="1.000000" stroke="none" 
	d="
M281.784576,213.486694 
	C281.759369,213.499817 281.462067,213.527817 281.335602,213.607208 
	C281.209137,213.686584 281.503662,213.367233 281.715912,213.414856 
	C281.928162,213.462494 281.809784,213.473587 281.784576,213.486694 
z"/>
<path fill="#C890CA" opacity="1.000000" stroke="none" 
	d="
M201.236725,189.841232 
	C201.260529,189.655502 201.543427,189.559662 201.921539,189.611588 
	C201.843109,189.816620 201.669464,189.873871 201.236725,189.841232 
z"/>
<path fill="#C890CA" opacity="1.000000" stroke="none" 
	d="
M168.227936,204.830078 
	C168.254364,204.626663 168.550049,204.518768 168.940018,204.570679 
	C168.855255,204.795502 168.676239,204.860535 168.227936,204.830078 
z"/>
<path fill="#C890CA" opacity="1.000000" stroke="none" 
	d="
M193.722916,200.768082 
	C193.497238,200.734589 193.379730,200.434570 193.438354,200.051575 
	C193.686676,200.146255 193.758881,200.323898 193.722916,200.768082 
z"/>
<path fill="#090509" opacity="1.000000" stroke="none" 
	d="
M329.828308,212.412292 
	C334.833191,211.099716 339.832825,210.262543 345.192932,209.329010 
	C340.838867,222.585419 336.124237,235.938156 331.409637,249.290894 
	C330.880768,249.234406 330.351929,249.177902 329.823059,249.121414 
	C329.823059,237.043503 329.823059,224.965591 329.828308,212.412292 
z"/>
<path fill="#090509" opacity="1.000000" stroke="none" 
	d="
M292.548584,220.452713 
	C291.917053,215.888306 293.818909,214.520966 297.757874,214.514236 
	C302.267609,214.506546 306.776337,213.930557 311.591003,213.833603 
	C311.678802,218.112732 311.461151,222.159744 311.197052,227.070587 
	C304.954437,226.698807 298.960693,226.341858 292.678345,225.546173 
	C292.406097,224.952225 292.468964,224.783707 292.429138,224.644592 
	C292.347382,224.359238 292.210541,224.089661 292.096375,223.813583 
	C292.268402,222.857010 292.440430,221.900436 292.548584,220.452713 
z"/>
<path fill="#090509" opacity="1.000000" stroke="none" 
	d="
M357.623230,227.796219 
	C359.604706,232.580093 361.297211,237.161438 363.122131,242.101303 
	C359.167480,242.101303 355.911957,242.101303 351.023254,242.101303 
	C353.298157,236.871811 355.316223,232.232758 357.623230,227.796219 
z"/>
<path fill="#DD9FE1" opacity="1.000000" stroke="none" 
	d="
M292.186096,223.930847 
	C292.210541,224.089661 292.347382,224.359238 292.429138,224.644592 
	C292.468964,224.783707 292.406097,224.952225 292.263275,225.300354 
	C292.183136,225.011566 292.229462,224.529846 292.186096,223.930847 
z"/>
<path fill="#1D111E" opacity="1.000000" stroke="none" 
	d="
M304.128174,186.283813 
	C304.157532,183.304062 304.295929,180.612457 304.648254,177.612106 
	C304.901550,177.846756 304.940857,178.390152 305.323761,179.404114 
	C307.777466,181.267715 309.887543,182.660706 311.997650,184.053711 
	C311.997650,184.053711 312.117310,184.272217 312.444641,184.499115 
	C313.181244,184.793488 313.590515,184.860962 313.999786,184.928436 
	C313.999786,184.928436 314.349121,185.148773 314.814697,185.402679 
	C316.527649,185.833344 317.775024,186.010086 319.022369,186.186829 
	C319.022369,186.186829 319.378052,186.473099 319.885559,186.723602 
	C323.369354,187.840988 326.396027,188.573898 329.289520,189.661224 
	C330.096100,189.964340 330.729065,191.252380 331.003235,192.213638 
	C331.127228,192.648499 330.305267,193.614853 329.697113,193.954697 
	C325.470612,196.316544 320.137451,194.487808 317.887848,190.235703 
	C317.498657,189.500153 315.989624,189.357086 314.997864,188.940338 
	C312.428986,188.826660 309.832275,188.896805 307.304230,188.513779 
	C306.208954,188.347839 305.255219,187.247711 304.128174,186.283813 
z"/>
<path fill="#F1AAF3" opacity="1.000000" stroke="none" 
	d="
M314.999817,189.334320 
	C315.989624,189.357086 317.498657,189.500153 317.887848,190.235703 
	C320.137451,194.487808 325.470612,196.316544 329.697113,193.954697 
	C330.305267,193.614853 331.127228,192.648499 331.003235,192.213638 
	C330.729065,191.252380 330.096100,189.964340 329.289520,189.661224 
	C326.396027,188.573898 323.369354,187.840988 320.112549,186.747421 
	C321.405884,186.255920 322.975677,185.827774 324.555054,185.788803 
	C325.471588,185.766174 326.419464,186.329575 327.326111,186.696396 
	C334.583282,189.632843 334.561615,189.628815 331.286255,196.824036 
	C330.966125,197.527328 331.080017,198.428223 330.987030,199.632294 
	C330.164276,200.282639 329.346985,200.538116 328.203613,200.762299 
	C324.724945,199.782227 321.572388,198.833420 318.034698,197.768707 
	C317.239838,195.661530 316.120789,192.694916 314.999817,189.334320 
z"/>
<path fill="#1D111E" opacity="1.000000" stroke="none" 
	d="
M238.920044,186.992706 
	C238.920044,186.992706 238.707809,187.259705 238.346344,187.505829 
	C235.166061,187.754364 232.347260,187.756790 229.528442,187.759216 
	C229.509567,187.373703 229.490707,186.988190 229.558014,186.036423 
	C230.694427,181.975418 231.744675,178.480667 232.794907,174.985931 
	C232.953125,174.642227 233.111343,174.298523 233.567505,173.647125 
	C235.550323,177.890518 237.235184,182.441605 238.920044,186.992706 
z"/>
<path fill="#F1AAF3" opacity="1.000000" stroke="none" 
	d="
M239.222382,186.945282 
	C237.235184,182.441605 235.550323,177.890518 233.509583,173.358124 
	C233.931488,172.327927 234.709290,171.279007 235.487076,170.230087 
	C236.129715,171.101151 237.172012,171.899017 237.347244,172.855698 
	C238.200333,177.513107 238.821457,182.213013 239.222382,186.945282 
z"/>
<path fill="#F1AAF3" opacity="1.000000" stroke="none" 
	d="
M229.174438,187.928314 
	C232.347260,187.756790 235.166061,187.754364 238.407104,187.665192 
	C239.140121,190.168716 238.298920,191.665054 235.381088,191.516769 
	C233.041138,191.397858 230.690338,191.492737 227.413284,191.492737 
	C227.654694,190.910233 228.237579,189.503815 229.174438,187.928314 
z"/>
<path fill="#F5AAF7" opacity="1.000000" stroke="none" 
	d="
M217.388794,182.984482 
	C216.997559,182.995728 216.998489,182.502029 216.999237,182.255280 
	C217.296921,179.930695 217.593842,177.852844 217.945435,175.387726 
	C219.450592,174.669250 220.901062,174.338028 222.669403,174.000839 
	C222.292603,176.130630 221.818573,178.378098 220.816345,180.358231 
	C220.258743,181.459930 218.821075,182.116211 217.388794,182.984482 
z"/>
<path fill="#F1AAF3" opacity="1.000000" stroke="none" 
	d="
M232.395721,174.991882 
	C231.744675,178.480667 230.694427,181.975418 229.451401,185.766541 
	C227.417297,183.273697 229.183472,176.135818 232.395721,174.991882 
z"/>
<path fill="#F1AAF3" opacity="1.000000" stroke="none" 
	d="
M277.657043,174.584885 
	C278.054810,174.689087 278.295502,174.942566 278.536163,175.196060 
	C278.431122,175.295456 278.240112,175.487122 278.233490,175.480957 
	C277.978485,175.243286 277.740326,174.987518 277.657043,174.584885 
z"/>
<path fill="#F1AAF3" opacity="1.000000" stroke="none" 
	d="
M225.518570,186.531067 
	C225.480515,186.550629 225.556625,186.511520 225.518570,186.531067 
z"/>
<path fill="#090509" opacity="1.000000" stroke="none" 
	d="
M336.603027,172.760620 
	C339.756256,172.684128 342.548309,172.684128 345.754028,172.684128 
	C345.754028,176.066284 345.754028,179.101532 345.497742,182.442108 
	C345.241425,182.747437 345.218658,182.788696 345.141541,182.440186 
	C344.332336,181.442444 343.705719,180.488831 342.851288,180.192795 
	C336.790405,178.092941 330.615143,176.304581 324.631073,174.012894 
	C322.813751,173.316940 321.483307,171.349655 319.929840,169.964661 
	C319.929840,169.964661 319.997894,169.950699 320.151947,169.827148 
	C320.536926,169.528580 320.655823,169.296249 320.662689,169.006622 
	C322.173584,168.626419 323.684448,168.246231 325.813477,168.026901 
	C326.617554,168.135101 326.803467,168.082458 326.989380,168.029816 
	C327.758942,168.316223 328.528473,168.602631 329.728088,169.305542 
	C331.453033,170.711273 332.747925,171.700485 334.042816,172.689697 
	C334.775818,172.738831 335.508850,172.787979 336.603027,172.760620 
z"/>
<path fill="#090509" opacity="1.000000" stroke="none" 
	d="
M376.591003,187.126190 
	C376.981232,188.545059 377.163879,189.982803 377.428741,192.067474 
	C374.700134,192.466705 372.204742,192.834915 369.708344,193.196182 
	C367.311615,193.543015 364.913849,193.882660 361.944122,194.307312 
	C361.944122,192.076340 361.944122,190.034149 362.081482,187.554749 
	C362.218872,187.117523 362.629578,187.166656 363.268860,187.175735 
	C367.938477,187.117905 371.968781,187.050995 375.999115,186.984100 
	C375.999115,186.984100 376.383484,187.145050 376.591003,187.126190 
z"/>
<path fill="#E3A3E5" opacity="1.000000" stroke="none" 
	d="
M319.587891,169.988235 
	C321.483307,171.349655 322.813751,173.316940 324.631073,174.012894 
	C330.615143,176.304581 336.790405,178.092941 342.851288,180.192795 
	C343.705719,180.488831 344.332336,181.442444 345.154602,182.425690 
	C343.198364,182.093460 341.151093,181.429825 339.105682,180.760559 
	C333.226044,178.836716 327.305786,177.024185 321.496368,174.907501 
	C319.997375,174.361343 318.847595,172.856888 317.537384,171.792664 
	C318.106903,171.199051 318.676422,170.605423 319.587891,169.988235 
z"/>
<path fill="#F1AAF3" opacity="1.000000" stroke="none" 
	d="
M311.954376,183.692520 
	C309.887543,182.660706 307.777466,181.267715 305.572388,179.534271 
	C307.622009,180.572998 309.766541,181.952164 311.954376,183.692520 
z"/>
<path fill="#E3A3E5" opacity="1.000000" stroke="none" 
	d="
M375.685516,186.721252 
	C371.968781,187.050995 367.938477,187.117905 363.454285,187.084183 
	C367.124268,186.808502 371.248108,186.633453 375.685516,186.721252 
z"/>
<path fill="#E3A3E5" opacity="1.000000" stroke="none" 
	d="
M333.979919,172.367065 
	C332.747925,171.700485 331.453033,170.711273 330.030151,169.382889 
	C331.240448,170.043961 332.578735,171.044205 333.979919,172.367065 
z"/>
<path fill="#E3A3E5" opacity="1.000000" stroke="none" 
	d="
M324.232788,163.283142 
	C324.806091,163.520233 325.111359,163.816666 325.416595,164.113083 
	C325.039581,164.319717 324.662537,164.526337 324.285522,164.732956 
	C324.178619,164.269455 324.071686,163.805969 324.232788,163.283142 
z"/>
<path fill="#F1AAF3" opacity="1.000000" stroke="none" 
	d="
M318.778839,185.888641 
	C317.775024,186.010086 316.527649,185.833344 315.019592,185.376801 
	C316.017700,185.261490 317.276520,185.425980 318.778839,185.888641 
z"/>
<path fill="#E3A3E5" opacity="1.000000" stroke="none" 
	d="
M320.470032,169.083755 
	C320.655823,169.296249 320.536926,169.528580 320.129150,169.800934 
	C319.935944,169.597458 320.044281,169.351669 320.470032,169.083755 
z"/>
<path fill="#E3A3E5" opacity="1.000000" stroke="none" 
	d="
M326.881683,167.809723 
	C326.803467,168.082458 326.617554,168.135101 326.206818,168.004761 
	C325.982025,167.821747 325.949219,167.420731 325.973236,167.211456 
	C325.997253,167.002197 326.013824,166.981796 326.013824,166.981796 
	C326.315735,167.123718 326.569122,167.326324 326.881683,167.809723 
z"/>
<path fill="#F1AAF3" opacity="1.000000" stroke="none" 
	d="
M313.776611,184.713104 
	C313.590515,184.860962 313.181244,184.793488 312.567139,184.476608 
	C312.759369,184.317398 313.156433,184.407593 313.776611,184.713104 
z"/>
<path fill="#E3A3E5" opacity="1.000000" stroke="none" 
	d="
M325.986511,167.010727 
	C325.975739,167.019257 325.563477,166.760498 325.563477,166.760498 
	C325.563477,166.760498 325.898224,166.753403 325.956024,166.867599 
	C326.013824,166.981796 325.997253,167.002197 325.986511,167.010727 
z"/>
<path fill="#000000" opacity="1.000000" stroke="none" 
	d="
M80.935608,187.485504 
	C78.536957,193.469116 73.599327,193.382050 68.354393,193.661636 
	C68.354393,185.788559 68.354393,178.069794 68.354393,170.323212 
	C77.526199,168.722076 82.518250,173.345551 81.522636,182.661209 
	C81.364639,184.139496 81.198219,185.616898 80.935608,187.485504 
z"/>
<path fill="#090509" opacity="1.000000" stroke="none" 
	d="
M137.190384,187.523438 
	C136.737137,189.854507 136.208038,191.724091 135.342651,193.780106 
	C134.838089,193.915588 134.669830,193.864655 133.886414,193.771790 
	C132.514694,193.809647 131.758148,193.889450 131.001617,193.969238 
	C129.606735,193.899384 128.211838,193.829529 125.962448,193.750916 
	C120.776222,193.481735 116.444511,193.221313 112.112801,192.960907 
	C112.152321,192.212906 112.191849,191.464905 112.238319,190.002686 
	C112.250473,188.535400 112.255684,187.782364 112.260895,187.029312 
	C117.183952,186.877701 122.107002,186.726074 127.472290,186.435333 
	C129.675842,186.400055 131.437149,186.503860 133.518494,186.626541 
	C133.518494,183.067963 133.518494,179.976074 133.518494,176.080017 
	C127.083733,176.080017 120.519073,176.080017 113.400818,175.605133 
	C112.853340,173.396683 112.859459,171.663116 112.865578,169.929535 
	C120.614647,169.854324 128.363708,169.779114 136.581406,169.764008 
	C137.071533,175.570053 137.093033,181.315994 137.190384,187.523438 
z"/>
<path fill="#090509" opacity="1.000000" stroke="none" 
	d="
M154.016434,176.277588 
	C153.836411,176.219833 153.656372,176.162064 153.130554,175.634857 
	C152.786530,173.415970 152.788239,171.666534 152.789948,169.917099 
	C152.789948,169.917099 152.939514,169.937469 153.401093,169.840149 
	C161.802414,169.742844 169.742188,169.742844 177.893738,169.742844 
	C177.893738,177.739166 177.893738,185.335800 177.893738,193.331299 
	C169.535645,193.331299 161.324570,193.331299 153.104980,193.331299 
	C153.104980,191.013580 153.104980,188.951477 153.104980,186.462082 
	C160.240341,186.462082 167.008362,186.462082 173.773254,186.462082 
	C173.773254,182.800949 173.773254,179.579330 173.773254,176.277588 
	C166.947510,176.277588 160.481964,176.277588 154.016434,176.277588 
z"/>
<path fill="#F1AAF3" opacity="1.000000" stroke="none" 
	d="
M154.302139,176.521957 
	C160.481964,176.277588 166.947510,176.277588 173.773254,176.277588 
	C173.773254,179.579330 173.773254,182.800949 173.773254,186.462082 
	C167.008362,186.462082 160.240341,186.462082 153.104980,186.462082 
	C153.104980,188.951477 153.104980,191.013580 153.104980,193.331299 
	C161.324570,193.331299 169.535645,193.331299 177.893738,193.331299 
	C177.893738,185.335800 177.893738,177.739166 177.893738,169.742844 
	C169.742188,169.742844 161.802414,169.742844 153.388992,169.765656 
	C154.430389,169.193192 155.926208,168.150818 157.464005,168.084671 
	C162.523056,167.867035 167.601318,168.114288 172.663223,167.932938 
	C174.101349,167.881424 175.508926,166.977539 177.314346,166.081497 
	C178.026428,165.634247 178.354660,165.570023 178.682907,165.505798 
	C179.119568,170.596817 179.787994,175.681091 179.935806,180.780457 
	C180.132492,187.565765 179.923752,194.362808 179.935760,201.517181 
	C179.517700,202.510345 179.053024,203.141159 178.266693,203.776520 
	C178.026535,193.398514 178.760529,194.987854 169.320419,195.096512 
	C165.416702,195.141434 161.513458,196.179413 157.631271,196.883072 
	C153.513077,197.629517 150.986237,196.488708 150.417557,191.910660 
	C149.939606,188.063019 150.495132,185.148422 155.058014,184.985260 
	C159.273514,184.834534 163.502106,184.905212 167.720428,185.030243 
	C170.432114,185.110611 172.135529,184.604156 172.058624,181.277588 
	C171.984451,178.070358 170.100662,178.094360 167.779755,177.955475 
	C163.374512,177.691879 158.984299,177.176895 154.302139,176.521957 
z"/>
<path fill="#F1AAF3" opacity="1.000000" stroke="none" 
	d="
M142.989227,176.346573 
	C142.740280,178.685104 142.488083,180.623825 142.235886,182.562546 
	C141.555862,182.486145 140.875854,182.409744 140.195831,182.333344 
	C140.534607,179.455566 140.873383,176.577789 141.212158,173.700012 
	C141.528702,173.662094 141.845245,173.624176 142.161789,173.586273 
	C142.436523,174.373093 142.711258,175.159927 142.989227,176.346573 
z"/>
<path fill="#C890CA" opacity="1.000000" stroke="none" 
	d="
M137.617050,160.089859 
	C138.003662,160.034424 138.310760,160.106918 138.462006,160.131805 
	C138.228546,162.682480 137.843826,165.208267 137.238373,168.087158 
	C137.088577,165.675262 137.159500,162.910278 137.617050,160.089859 
z"/>
<path fill="#F1AAF3" opacity="1.000000" stroke="none" 
	d="
M152.460083,169.977264 
	C152.788239,171.666534 152.786530,173.415970 152.849335,175.598083 
	C148.433228,173.465240 148.306244,172.494141 152.460083,169.977264 
z"/>
<path fill="#8D638C" opacity="1.000000" stroke="none" 
	d="
M178.645142,165.173309 
	C178.354660,165.570023 178.026428,165.634247 177.448380,165.675262 
	C177.211197,164.433426 177.223816,163.214752 177.194290,161.633286 
	C177.498489,161.288177 177.844803,161.305878 178.439758,161.402374 
	C178.661392,162.601059 178.634369,163.720932 178.645142,165.173309 
z"/>
<path fill="#F5AAF7" opacity="1.000000" stroke="none" 
	d="
M193.756363,179.077423 
	C190.488617,175.836075 191.394577,172.039474 193.194183,168.812790 
	C194.516129,166.442581 203.816925,166.925064 205.032333,169.574417 
	C206.196213,172.111481 206.921356,176.357208 205.579590,178.250458 
	C201.733353,183.677582 198.241577,183.750336 194.432983,179.601654 
	C195.603775,179.260864 196.426163,179.280716 197.246277,179.246033 
	C200.396088,179.112854 203.371033,178.551971 203.419510,174.544922 
	C203.468185,170.521088 200.509506,169.880844 197.349380,169.744705 
	C196.261520,169.697830 195.165390,169.843536 193.756363,169.917999 
	C193.756363,173.223053 193.756363,176.150238 193.756363,179.077423 
z"/>
<path fill="#F5AAF7" opacity="1.000000" stroke="none" 
	d="
M184.058334,160.399048 
	C184.748169,160.002625 185.496857,160.000977 186.619720,160.000580 
	C186.993896,162.731689 186.993896,165.461517 186.993896,168.191360 
	C186.554260,168.245819 186.114624,168.300293 185.674988,168.354767 
	C185.155716,165.834457 184.636459,163.314133 184.058334,160.399048 
z"/>
<path fill="#F5AAF7" opacity="1.000000" stroke="none" 
	d="
M216.671234,171.937958 
	C217.338135,172.779968 217.665207,173.555893 217.996124,174.665604 
	C215.865295,173.962418 212.227280,174.794495 212.335403,169.842560 
	C214.017776,170.696915 215.174606,171.284393 216.671234,171.937958 
z"/>
<path fill="#F5AAF7" opacity="1.000000" stroke="none" 
	d="
M208.538269,184.044281 
	C208.185196,184.257996 207.834900,184.255264 207.486633,184.227402 
	C207.477081,184.226624 207.483139,183.828766 207.492081,183.828323 
	C207.841110,183.811584 208.191299,183.819595 208.538269,184.044281 
z"/>
<path fill="#F5AAF7" opacity="1.000000" stroke="none" 
	d="
M211.155029,165.188202 
	C211.564636,164.842117 212.126038,164.708008 212.842316,164.778229 
	C212.433746,165.121765 211.870270,165.260971 211.155029,165.188202 
z"/>
<path fill="#F1AAF3" opacity="1.000000" stroke="none" 
	d="
M195.531006,188.490570 
	C195.550064,188.529190 195.511963,188.451935 195.531006,188.490570 
z"/>
<path fill="#F1AAF3" opacity="1.000000" stroke="none" 
	d="
M193.923080,189.967697 
	C193.885223,189.956863 193.499619,189.671753 193.499619,189.671753 
	C193.499619,189.671753 193.867203,189.659729 193.913666,189.779755 
	C193.960114,189.899780 193.960938,189.978531 193.923080,189.967697 
z"/>
<path fill="#090509" opacity="1.000000" stroke="none" 
	d="
M90.619675,228.485092 
	C84.405602,229.609482 78.159164,230.397171 71.490280,231.034821 
	C71.930099,226.490173 72.571548,221.939590 77.944252,220.558838 
	C84.354424,218.911453 87.787231,220.980469 90.619675,228.485092 
z"/>
<path fill="#B86DD6" opacity="1.000000" stroke="none" 
	d="
M103.868088,226.827942 
	C103.952797,226.969849 103.496819,226.996445 103.269073,226.989349 
	C103.203575,226.593689 103.450928,226.494949 103.868088,226.827942 
z"/>
<path fill="#F5AAF7" opacity="1.000000" stroke="none" 
	d="
M111.831482,193.165527 
	C116.444511,193.221313 120.776222,193.481735 125.555420,193.860245 
	C122.973930,194.505371 119.944954,195.032410 117.226257,195.505478 
	C117.019142,197.496063 116.809853,199.507584 116.600571,201.519104 
	C114.125389,200.530853 111.650200,199.542587 108.491325,198.281357 
	C109.721199,196.306686 110.635674,194.838409 111.831482,193.165527 
z"/>
<path fill="#F5AAF7" opacity="1.000000" stroke="none" 
	d="
M106.899429,201.265076 
	C105.202637,201.510773 103.782524,201.510773 101.691200,201.510773 
	C104.939758,198.254593 105.666611,198.284531 106.899429,201.265076 
z"/>
<path fill="#F5AAF7" opacity="1.000000" stroke="none" 
	d="
M111.919220,187.066071 
	C112.255684,187.782364 112.250473,188.535400 112.119385,189.644928 
	C109.768593,189.334595 109.443222,188.395203 111.919220,187.066071 
z"/>
<path fill="#F5AAF7" opacity="1.000000" stroke="none" 
	d="
M131.045929,194.267578 
	C131.758148,193.889450 132.514694,193.809647 133.635406,193.852692 
	C133.029816,194.172318 132.060043,194.369110 131.045929,194.267578 
z"/>
<path fill="#8D638C" opacity="1.000000" stroke="none" 
	d="
M112.523514,170.121582 
	C112.859459,171.663116 112.853340,173.396683 112.936172,175.554993 
	C112.743896,174.091034 112.462669,172.202347 112.523514,170.121582 
z"/>
<path fill="#FCADFE" opacity="1.000000" stroke="none" 
	d="
M130.457001,178.956940 
	C130.812241,178.741791 131.164825,178.744446 131.515396,178.772430 
	C131.525009,178.773193 131.518997,179.173645 131.510010,179.174088 
	C131.158768,179.190994 130.806335,179.182999 130.457001,178.956940 
z"/>
<path fill="#000000" opacity="1.000000" stroke="none" 
	d="
M193.846130,179.077423 
	C193.756363,176.150238 193.756363,173.223053 193.756363,169.917999 
	C195.165390,169.843536 196.261520,169.697830 197.349380,169.744705 
	C200.509506,169.880844 203.468185,170.521088 203.419510,174.544922 
	C203.371033,178.551971 200.396088,179.112854 197.246277,179.246033 
	C196.426163,179.280716 195.603775,179.260864 194.349091,179.260941 
	C193.915741,179.255844 193.935913,179.077423 193.846130,179.077423 
z"/>
</svg>